<svg xmlns="http://www.w3.org/2000/svg" width="17" height="17" viewBox="0 0 17 17" fill="none">
  <g clip-path="url(#clip0_382_4316)">
    <path d="M11.3967 0.376665C10.8197 0.204277 10.211 0.165751 9.61688 0.264017C9.58712 0.268268 9.58755 0.309926 9.61688 0.316303C11.5132 0.739691 12.9304 2.41624 12.9304 4.42138C12.9304 6.47711 11.4426 8.18554 9.47617 8.5558C9.7393 8.60596 10.0063 8.63146 10.2736 8.63189C12.4654 8.63189 14.298 6.98127 14.5054 4.82054C14.6827 2.95568 13.2076 0.920354 11.3967 0.376665ZM0.284905 13.5557C-0.120629 13.0698 -0.0891728 12.2562 0.35802 11.8294C1.38121 10.8517 3.12875 9.41703 4.26459 9.41703C5.96281 9.41575 11.7721 9.46464 12.1155 9.89653C12.4488 10.3161 12.1644 11.6139 10.5355 11.7576C9.78734 11.8235 8.92908 11.8409 8.20176 11.8562C7.84341 11.8613 7.48548 11.8715 7.12713 11.8872C6.9843 11.8957 6.94434 12.1295 7.07187 12.2082C7.68995 12.5848 8.91378 13.1854 10.3748 13.1234C11.5923 13.0719 12.7481 12.4492 13.662 11.463C14.417 10.6498 15.5634 9.51182 16.0799 9.51182C16.4591 9.51182 16.7078 9.59259 16.8646 9.67718C17.0015 9.75115 17.0487 9.96071 16.956 10.1061C16.3652 11.0472 14.0229 14.558 11.4477 15.4907C9.30614 16.2673 6.93202 16.0029 5.76345 15.7929C5.27502 15.7049 4.78234 15.8448 4.37681 16.1866L3.90283 16.587C3.53173 16.8994 3.03225 16.8459 2.71046 16.4607L0.28448 13.5561V13.5553L0.284905 13.5557ZM11.8686 4.42181C11.8826 5.17264 11.6951 5.9135 11.3257 6.56734C10.9563 7.22117 10.4185 7.76409 9.76821 8.13963C9.11473 8.51867 8.3727 8.71829 7.61726 8.71829C6.86182 8.71829 6.11979 8.51867 5.46631 8.13963C4.81607 7.76404 4.27834 7.22109 3.90904 6.56726C3.53973 5.91343 3.35235 5.1726 3.36637 4.42181C3.41866 2.13398 5.30648 0.306101 7.61726 0.306101C9.92762 0.306101 11.8154 2.13398 11.8681 4.42181H11.8686ZM8.54948 3.8794H9.02133V4.51023H8.22429L8.05935 4.82607V5.14744H9.02133V5.77869H8.05978V6.66925H7.17899V5.77869H6.21192V5.14744H7.17984V4.82607L7.01406 4.51065H6.21234V3.87812H6.69014L5.81658 2.17479H6.77898L7.62066 3.99247L8.46106 2.17479H9.41751L8.5499 3.8794H8.54948Z" fill="#666D80"/>
  </g>
  <defs>
    <clipPath id="clip0_382_4316">
      <rect width="17" height="17" fill="white"/>
    </clipPath>
  </defs>
</svg>