<svg width="11" height="7" viewBox="0 0 11 7" fill="none" xmlns="http://www.w3.org/2000/svg">
<path d="M3.52645 6.39447C3.34635 6.38945 3.17542 6.32185 3.04962 6.2059L0.203008 3.66018C0.072772 3.53877 0 3.37669 0 3.20804C0 3.03939 0.072772 2.87731 0.203008 2.7559C0.268598 2.69655 0.346602 2.64945 0.432527 2.61731C0.518452 2.58517 0.610601 2.56862 0.70367 2.56862C0.796739 2.56862 0.888889 2.58517 0.974814 2.61731C1.06074 2.64945 1.13874 2.69655 1.20433 2.7559L3.52645 4.8559L9.45809 0.188751C9.52294 0.129008 9.60043 0.081531 9.68601 0.0491152C9.77158 0.0166994 9.86351 0 9.95637 0C10.0492 0 10.1412 0.0166994 10.2267 0.0491152C10.3123 0.081531 10.3898 0.129008 10.4547 0.188751C10.5207 0.247704 10.5731 0.317814 10.6088 0.395044C10.6446 0.472274 10.663 0.555099 10.663 0.638751C10.663 0.722402 10.6446 0.805227 10.6088 0.882457C10.5731 0.959687 10.5207 1.0298 10.4547 1.08875L4.02712 6.2059C3.89458 6.32584 3.71453 6.39366 3.52645 6.39447Z" fill="white"/>
</svg>
