<svg xmlns="http://www.w3.org/2000/svg" width="16" height="16" viewBox="0 0 16 16" fill="none">
  <g clip-path="url(#clip0_382_4345)">
    <path d="M1.71439 0H14.2858C14.9715 0 15.4287 0.457143 15.4287 1.14286V14.7429C15.4287 15.4286 14.9715 15.8857 14.2858 15.8857C14.0572 15.8857 13.943 15.8857 13.7144 15.7714L8.57153 12.9143C8.22867 12.6857 7.77153 12.6857 7.42868 12.9143L2.28582 15.7714C1.71439 16.1143 1.02868 15.8857 0.685819 15.3143C0.571533 15.2 0.571533 14.9714 0.571533 14.7429V1.14286C0.571533 0.457143 1.02868 0 1.71439 0ZM4.8001 3.42857C4.34296 3.42857 4.0001 3.77143 4.0001 4.22857C4.0001 4.68571 4.34296 5.02857 4.91439 5.02857H11.2001C11.6572 5.02857 12.1144 4.68571 12.1144 4.22857C12.1144 3.77143 11.6572 3.42857 11.2001 3.42857H4.8001ZM4.8001 8C4.34296 8 4.0001 8.34286 4.0001 8.8C4.0001 9.25714 4.34296 9.71429 4.91439 9.71429H11.2001C11.6572 9.71429 12.1144 9.37143 12.1144 8.8C12.1144 8.22857 11.6572 8 11.2001 8H4.8001Z" fill="#8F92A1"/>
  </g>
  <defs>
    <clipPath id="clip0_382_4345">
      <rect width="16" height="16" fill="white"/>
    </clipPath>
  </defs>
</svg>