<svg width="20" height="20" viewBox="0 0 20 20" fill="none" xmlns="http://www.w3.org/2000/svg">
<path d="M15.4813 4.59546H4.5192C4.38792 4.59546 4.26758 4.70486 4.26758 4.84708V16.4218C4.26758 17.1767 4.88023 17.7893 5.6351 17.7893H14.3763C14.7373 17.7893 15.0765 17.6471 15.3281 17.3955C15.5797 17.1438 15.7219 16.7938 15.7219 16.4327V4.83614C15.7329 4.70486 15.6235 4.59546 15.4813 4.59546ZM7.80125 14.0806C7.80125 14.2119 7.74655 14.3432 7.65903 14.4307C7.56057 14.5291 7.44023 14.5729 7.30895 14.5729C7.03544 14.5729 6.81664 14.3541 6.81664 14.0806V7.99785C6.81664 7.72435 7.03544 7.50554 7.30895 7.50554C7.58245 7.50554 7.80125 7.72435 7.80125 7.99785V14.0806ZM10.4925 14.0806C10.4925 14.3541 10.2737 14.5729 10.0002 14.5729C9.72672 14.5729 9.50792 14.3541 9.50792 14.0806V7.99785C9.50792 7.72435 9.72672 7.50554 10.0002 7.50554C10.2737 7.50554 10.4925 7.72435 10.4925 7.99785V14.0806ZM13.1948 14.0806C13.1948 14.3541 12.976 14.5729 12.7024 14.5729C12.4289 14.5729 12.2101 14.3541 12.1992 14.0696V7.99785C12.1992 7.72435 12.418 7.50554 12.7024 7.50554C12.976 7.50554 13.1948 7.72435 13.1948 7.99785V14.0806Z" fill="#666D80"/>
<path d="M17.5925 4.09238H13.9932V3.1187C13.9932 2.45135 13.4462 1.91528 12.7898 1.91528H7.24311C6.57576 1.91528 6.03969 2.46229 6.03969 3.1187V4.09238H2.40756C2.10123 4.09238 1.84961 4.344 1.84961 4.65033C1.84961 4.95665 2.10123 5.20827 2.40756 5.20827H17.5925C17.8988 5.20827 18.1505 4.95665 18.1505 4.65033C18.1505 4.344 17.8988 4.09238 17.5925 4.09238ZM12.8773 4.09238H7.15559V3.02024H12.8773V4.09238Z" fill="#666D80"/>
</svg>
