<svg width="24" height="24" viewBox="0 0 24 24" fill="none" xmlns="http://www.w3.org/2000/svg"><g clip-path="url(#a)" fill="#36394C"><path d="M4.5 2.25a3 3 0 0 0-3 3V15a3 3 0 0 0 3 3h15a3 3 0 0 0 3-3V5.25a3 3 0 0 0-3-3h-15zm0-1.5h15a4.5 4.5 0 0 1 4.5 4.5V15a4.5 4.5 0 0 1-4.5 4.5h-15A4.5 4.5 0 0 1 0 15V5.25A4.5 4.5 0 0 1 4.5.75zm-.375 21h15.75a.375.375 0 0 1 .375.375v.75a.375.375 0 0 1-.375.375H4.125a.375.375 0 0 1-.375-.375v-.75a.375.375 0 0 1 .375-.375z"/><path d="M5.25 13.848V6.87h1.41v6.979H5.25v-.001zm2.377 0V6.87h2.261c.857 0 1.415.034 1.675.105.401.104.736.332 1.005.683.27.35.405.803.405 1.359 0 .428-.078.789-.234 1.08a1.909 1.909 0 0 1-.592.689c-.24.166-.483.277-.73.33-.337.067-.824.1-1.463.1h-.918v2.633h-1.41v-.001zM9.036 8.05v1.98h.771c.555 0 .927-.036 1.114-.109a.93.93 0 0 0 .44-.343.939.939 0 0 0 .16-.543.904.904 0 0 0-.224-.628.975.975 0 0 0-.566-.31c-.169-.031-.506-.047-1.014-.047h-.681zm4.433 2.352c0-.711.107-1.308.319-1.79.159-.356.375-.676.65-.958.255-.268.562-.482.902-.628.435-.184.936-.276 1.504-.276 1.03 0 1.852.319 2.47.957.616.638.925 1.525.925 2.661 0 1.127-.306 2.008-.919 2.644-.612.637-1.431.955-2.456.955-1.038 0-1.863-.316-2.475-.95-.614-.633-.92-1.505-.92-2.615zm1.452-.048c0 .79.183 1.39.548 1.797.365.408.828.612 1.39.612.562 0 1.022-.203 1.383-.608.36-.404.54-1.01.54-1.82 0-.8-.175-1.397-.526-1.79-.35-.394-.817-.59-1.397-.59-.581 0-1.05.198-1.405.597-.355.398-.533 1-.533 1.802z"/></g><defs><clipPath id="a"><path fill="#fff" d="M0 0h24v24H0z"/></clipPath></defs></svg>