<svg width="20" height="20" viewBox="0 0 20 20" fill="none" xmlns="http://www.w3.org/2000/svg"><path d="M16.886 11.787a1.403 1.403 0 0 0-1.327-.246 6.38 6.38 0 0 0 .72-2.954 6.456 6.456 0 0 0-6.446-6.446c-3.554 0-6.44 2.893-6.44 6.446 0 .96.213 1.907.626 2.767-.013 0-.026 0-.04.007l-.06.02c-.5.166-1.053.446-1.22.526l.454.894c.3-.154.74-.36 1.086-.467.014-.007.027-.007.04-.013a6.942 6.942 0 0 1 2.18-.34c1.814 0 3.54.68 4.854 1.9a7.12 7.12 0 0 1-1.42.14c-.894 0-1.76-.22-2.727-.694l-.44.9c2.02.98 3.927.974 5.7.4 1.02-.333 2.12-1.02 3.273-2.04a.417.417 0 0 1 .56-.02c.067.054.26.24.107.52-.667 1.227-1.667 2.214-2.973 2.934-.974.533-2.12.813-3.314.813-2.333 0-5.133-.96-6.513-2.233l-.68.733c1.573 1.447 4.593 2.5 7.193 2.5 1.36 0 2.674-.327 3.794-.94 1.48-.813 2.613-1.933 3.373-3.333a1.37 1.37 0 0 0-.36-1.774zm-10.427-.806c-.493 0-.973.04-1.446.126a5.447 5.447 0 0 1 4.82-7.967 5.449 5.449 0 0 1 5.446 5.447 5.439 5.439 0 0 1-2.986 4.854 8.105 8.105 0 0 0-5.834-2.46z" fill="#000"/><path d="M9.927 10.793a.494.494 0 0 1-.353-.146l-2.4-2.4a.5.5 0 0 1 0-.707l2.4-2.4a.516.516 0 0 1 .706 0l2.4 2.4a.5.5 0 0 1 0 .707l-2.4 2.4a.524.524 0 0 1-.353.146zM8.234 7.887 9.927 9.58l1.693-1.693-1.693-1.694-1.693 1.694z" fill="#000"/></svg>