<svg width="21" height="21" viewBox="0 0 21 21" fill="none" xmlns="http://www.w3.org/2000/svg">
<g id="Frame">
<path id="Vector" d="M16.1415 8.8687H16.9495C17.3958 8.8687 17.7576 9.23048 17.7576 9.67678V17.7576C17.7576 18.2039 17.3958 18.5657 16.9495 18.5657H4.02024C3.57395 18.5657 3.21216 18.2039 3.21216 17.7576V9.67678C3.21216 9.23048 3.57395 8.8687 4.02024 8.8687H4.82832V8.06062C4.82832 4.93659 7.36085 2.40405 10.4849 2.40405C13.6089 2.40405 16.1415 4.93659 16.1415 8.06062V8.8687ZM4.82832 10.4849V16.9495H16.1415V10.4849H4.82832ZM9.67681 12.101H11.293V15.3333H9.67681V12.101ZM14.5253 8.8687V8.06062C14.5253 5.82917 12.7163 4.02021 10.4849 4.02021C8.25344 4.02021 6.44448 5.82917 6.44448 8.06062V8.8687H14.5253Z" fill="#014CFA"/>
</g>
</svg>
