<svg xmlns="http://www.w3.org/2000/svg" width="17" height="17" viewBox="0 0 17 17" fill="none">
  <g clip-path="url(#clip0_382_4356)">
    <path d="M16.9881 9.76518V12.6747L16.1352 11.8612C14.5142 13.7873 13.1062 15.0709 11.8692 15.7553C7.09182 18.4087 1.80243 16.4826 0.394396 12.9744C-1.01303 9.4655 1.46089 3.30314 6.28133 0.649649C6.66534 0.436108 7.09182 0.22196 7.47583 0.0933502C7.53411 0.0400031 7.60977 0.00961058 7.68876 0.0078125C8.03031 0.0078125 8.28631 0.349963 8.28631 0.735187C8.28631 1.12041 8.03031 1.46256 7.68876 1.46256H7.81677L7.56137 1.59178C3.59387 3.7739 1.37596 8.26676 2.61292 11.6476C3.84988 15.0279 8.11524 15.9694 12.1252 13.7873C13.0212 13.2734 14.0446 12.4181 15.2391 11.2193L14.1726 10.1929L16.9881 9.76518ZM11.4003 8.01014C11.6987 8.18122 11.9117 8.43783 12.0827 8.73752C12.2532 9.0372 12.3387 9.42182 12.3387 9.85072C12.3387 10.1929 12.2532 10.535 12.0403 10.8347C11.853 11.1145 11.605 11.3484 11.3147 11.519C11.0162 11.6901 10.6753 11.8187 10.3338 11.9467C10.0778 12.0322 9.82175 12.0322 9.56574 12.0759V12.375C9.56574 12.4605 9.52328 12.5461 9.48081 12.6322C9.43774 12.6747 9.35281 12.7178 9.2248 12.7178H8.62725C8.54232 12.7178 8.45678 12.6747 8.37185 12.6322C8.32878 12.5891 8.28631 12.5036 8.28631 12.375V12.0759C7.6463 12.0322 7.04935 11.8612 6.57981 11.5621C6.02877 11.2267 5.63077 10.6892 5.47085 10.0643C5.47085 9.97872 5.42838 9.89319 5.42838 9.76518C5.42838 9.67904 5.42838 9.5935 5.38531 9.50736C5.38531 9.42182 5.38531 9.33628 5.47085 9.25074C5.51331 9.16521 5.64132 9.12274 5.72686 9.12274H6.53734C6.62227 9.12274 6.70781 9.1652 6.79335 9.20888C6.83581 9.25074 6.87828 9.33628 6.87828 9.4655C6.87828 9.63657 6.92135 9.80765 7.00628 9.97872C7.09182 10.1498 7.17736 10.2784 7.34783 10.4064C7.47583 10.535 7.6463 10.6206 7.85984 10.7061C7.94477 10.7492 8.15831 10.7916 8.28631 10.7916V8.39536C8.03031 8.35229 7.7743 8.26676 7.5183 8.22368C7.19963 8.14826 6.89646 8.01813 6.62227 7.83907C6.36687 7.66799 6.11087 7.45384 5.98286 7.19723C5.80854 6.89884 5.71996 6.55814 5.72686 6.21264C5.72686 5.87048 5.81179 5.57141 5.98286 5.27172C6.15333 5.01511 6.36687 4.75849 6.62227 4.58681C6.87828 4.41574 7.17736 4.24466 7.5183 4.15852C7.7743 4.07298 7.98784 4.07298 8.24385 4.03112V3.7739C8.24385 3.68836 8.28631 3.60282 8.32878 3.51729C8.41432 3.47421 8.49925 3.43114 8.62725 3.43114H9.2248C9.30974 3.43114 9.39527 3.47421 9.48081 3.51729C9.52328 3.55975 9.56574 3.64529 9.56574 3.7739V4.07298C9.82175 4.07298 10.0778 4.11666 10.2913 4.2022C10.6097 4.27788 10.9126 4.408 11.1867 4.58681C11.4427 4.75849 11.6563 4.97203 11.8267 5.27172C11.9972 5.52833 12.0827 5.87048 12.0827 6.17017C12.0827 6.25571 12.0403 6.34125 11.9972 6.42678C11.9547 6.51232 11.8267 6.51232 11.7412 6.51232H10.9307C10.8517 6.5108 10.7759 6.48037 10.7178 6.42678C10.6753 6.38432 10.6322 6.29817 10.6322 6.17017C10.6322 6.04156 10.5898 5.95602 10.5467 5.82802C10.4618 5.69941 10.3762 5.61387 10.2913 5.52833C10.1633 5.4428 10.0353 5.35726 9.86421 5.31419C9.77928 5.31419 9.73682 5.27172 9.65128 5.27172V7.36831C9.94975 7.45384 10.2913 7.49692 10.5467 7.58245C10.8027 7.71046 11.1018 7.83907 11.4003 8.01014ZM8.03031 7.06862C8.11524 7.11169 8.20078 7.11169 8.28631 7.15416V5.31419C8.20078 5.31419 8.11524 5.35726 8.03031 5.35726C7.86312 5.40191 7.7046 5.4743 7.56137 5.57141C7.43336 5.65694 7.34783 5.74248 7.30475 5.87048C7.26229 5.95602 7.21982 6.08463 7.21982 6.21264C7.21982 6.38432 7.26229 6.51232 7.30475 6.59786C7.34783 6.684 7.43336 6.76954 7.56137 6.85508C7.68876 6.94062 7.81677 7.02615 8.03031 7.06862ZM10.3762 10.535C10.5042 10.4495 10.6322 10.3209 10.7178 10.1929C10.8027 10.0643 10.8458 9.93626 10.8458 9.76518C10.8458 9.55103 10.8027 9.42182 10.7602 9.29442C10.6837 9.17389 10.5818 9.07143 10.4618 8.99413C10.3068 8.88989 10.1328 8.81713 9.94975 8.77998C9.82175 8.73752 9.73682 8.73752 9.60881 8.69444V10.8772C9.73682 10.8772 9.82175 10.8347 9.90729 10.7916C10.0353 10.7061 10.2058 10.6206 10.3762 10.535Z" fill="#666D80"/>
  </g>
  <defs>
    <clipPath id="clip0_382_4356">
      <rect width="17" height="17" fill="white"/>
    </clipPath>
  </defs>
</svg>