<svg xmlns="http://www.w3.org/2000/svg" width="18" height="18" viewBox="0 0 18 18" fill="none">
  <path d="M15.6625 16.1598L2.45859 16.1601C2.14263 16.1598 1.85312 15.8694 1.85239 15.5538V11.8108C1.85239 11.2028 2.15773 10.8846 2.47828 11.1895L4.26396 12.5949C4.50386 12.8003 4.86441 13.0798 5.06508 12.8362L7.11168 10.3512C7.31239 10.1076 7.67441 9.7636 7.91623 9.96697L9.67733 11.5003C9.91905 11.7034 10.4196 12.058 10.6163 11.8108L14.9982 6.52986C15.5901 5.85421 16.2502 6.01273 16.2502 6.84052C16.2502 7.45739 16.2502 15.5538 16.2502 15.5538C16.2502 15.8693 15.9783 16.16 15.6625 16.1597L15.6625 16.1598ZM10.5236 9.67394C10.3614 9.88173 10.1219 10.0143 9.85999 10.0419C9.59756 10.073 9.33604 9.9889 9.13461 9.81957L7.1481 8.14654L5.15288 10.7801C4.99347 10.99 4.75607 11.1267 4.4944 11.1578C4.45638 11.1623 4.41817 11.1646 4.37999 11.1646C4.15755 11.1646 3.94027 11.0876 3.76621 10.945L2.02496 9.52029C1.6104 9.18135 1.54928 8.57012 1.88834 8.15554C2.22714 7.7404 2.83823 7.67972 3.25265 8.01892L4.21525 8.80632L6.21892 6.1612C6.37962 5.94894 6.62 5.81248 6.88406 5.7829C7.15002 5.75389 7.41304 5.8341 7.6164 6.00459L9.61372 7.68698L12.1943 4.45012L11.4752 3.85277C10.9649 3.42903 11.0782 2.96992 11.7271 2.83274L15.4671 2.04166C16.1158 1.90446 16.3165 2.2228 15.9131 2.74941L10.5237 9.67387L10.5236 9.67394Z" fill="#666D80"/>
</svg>