<svg width="28" height="28" viewBox="0 0 28 28" fill="none" xmlns="http://www.w3.org/2000/svg"><path d="M14.738 11.056V8.107h2.21v2.947h2.211v2.211h-4.421v2.21h4.421v2.211h-4.421v2.947h-2.21v-2.947H8.105v-2.21h4.421v-2.211h-4.42v-2.21h2.21V8.107h2.21v2.947h2.211zM3.248 20.43l-.37.941H.668l1.357-3.684h2.337a10.32 10.32 0 0 0 9.64 6.632c5.696 0 10.315-4.619 10.315-10.316h2.21c0 6.918-5.608 12.526-12.526 12.526A12.52 12.52 0 0 1 3.248 20.43zm22.731-10.11h-2.34a10.32 10.32 0 0 0-9.638-6.632c-5.697 0-10.316 4.619-10.316 10.316h-2.21C1.475 7.085 7.083 1.477 14 1.477a12.52 12.52 0 0 1 10.76 6.105l.376-.948h2.21L25.98 10.32z" fill="#333"/></svg>