<svg width="30" height="30" viewBox="0 0 30 30" fill="none" xmlns="http://www.w3.org/2000/svg"><path d="M27.936 9.535a13.926 13.926 0 0 0-3.009-4.462 14.07 14.07 0 0 0-4.46-3.01A13.962 13.962 0 0 0 15 .96c-1.895 0-3.732.371-5.466 1.104a13.926 13.926 0 0 0-4.461 3.01A13.997 13.997 0 0 0 .96 14.998c0 1.895.371 3.731 1.104 5.466a13.928 13.928 0 0 0 3.009 4.462 14.071 14.071 0 0 0 4.46 3.01A13.96 13.96 0 0 0 15 29.04a13.96 13.96 0 0 0 5.466-1.104 13.924 13.924 0 0 0 4.461-3.01 14.07 14.07 0 0 0 3.01-4.46 13.954 13.954 0 0 0 1.103-5.468 14.058 14.058 0 0 0-1.104-5.463zM23.482 23.48A11.917 11.917 0 0 1 15 26.994a11.917 11.917 0 0 1-8.482-3.513 11.933 11.933 0 0 1-3.513-8.483 11.92 11.92 0 0 1 3.513-8.482A11.911 11.911 0 0 1 15 3.002c3.203 0 6.216 1.248 8.482 3.514a11.914 11.914 0 0 1 3.513 8.482 11.947 11.947 0 0 1-3.513 8.483z" fill="#333" stroke="#333" stroke-width=".08"/><path d="m18.744 7.946 3.34 4.157a1.02 1.02 0 0 1-.797 1.664H8.715a1.021 1.021 0 0 1-1.023-1.023c0-.566.457-1.023 1.023-1.023h10.438l-2.005-2.493 1.596-1.282zm0 0a1.024 1.024 0 0 0-1.44-.157m1.44.157-1.44-.157m0 0c-.439.355-.51.999-.156 1.439l.157-1.439zM12.698 22.23c.44-.355.512-.999.157-1.439l-2.005-2.493h10.438c.566 0 1.023-.457 1.023-1.023 0-.566-.457-1.023-1.023-1.023H8.715a1.02 1.02 0 0 0-.798 1.664l3.341 4.157a1.02 1.02 0 0 0 1.438.157z" fill="#333" stroke="#333" stroke-width=".08"/></svg>