<svg width="20" height="20" viewBox="0 0 20 20" fill="none" xmlns="http://www.w3.org/2000/svg"><path d="M17.216 12.315v2.306a2.598 2.598 0 0 1-2.598 2.591H4.148a2.598 2.598 0 0 1-2.598-2.591v-2.809a.172.172 0 0 1 .176-.175h.808a.172.172 0 0 1 .175.175v2.406c0 1.23.6 1.829 1.833 1.829h9.654c1.233 0 1.833-.599 1.833-1.829v-1.81h-3.12a1.283 1.283 0 0 1-1.284-1.279V9.266c0-.706.576-1.28 1.284-1.28h3.12V5.782c0-1.23-.6-1.83-1.833-1.83H4.534c-1.235 0-1.834.6-1.834 1.83v2.406a.172.172 0 0 1-.176.175h-.808a.172.172 0 0 1-.175-.175v-2.81A2.597 2.597 0 0 1 4.14 2.79h10.47a2.598 2.598 0 0 1 2.598 2.59v2.703c.477.2.797.662.817 1.179v1.868c0 .517-.324.992-.808 1.186zm-.173-2.712a.693.693 0 0 0-.697-.686h-3.043a.693.693 0 0 0-.697.686v1.104c0 .379.313.686.697.686h3.043a.697.697 0 0 0 .697-.695V9.603zm-3.354 1.28a.777.777 0 0 1-.542-.216.724.724 0 0 1-.226-.53c0-.222.078-.405.23-.544a.763.763 0 0 1 .528-.213.82.82 0 0 1 .547.222c.144.132.23.332.23.535a.78.78 0 0 1-.226.53.791.791 0 0 1-.541.216zm-12.101-.298a.18.18 0 0 1-.037-.141l-.001-.926a.172.172 0 0 1 .176-.175h3.28l-.16-.166a.192.192 0 0 1-.056-.127V7.646a.18.18 0 0 1 .099-.162l.03-.014h.046c.073 0 .114.042.13.057l2.319 2.341a.185.185 0 0 1 0 .256l-2.32 2.34a.198.198 0 0 1-.129.057l-.052-.002-.024-.011a.18.18 0 0 1-.1-.162v-1.405c0-.07.041-.111.056-.127l.162-.166H1.726a.177.177 0 0 1-.138-.063z" fill="#000"/></svg>