<?xml version="1.0" standalone="no"?><!DOCTYPE svg PUBLIC "-//W3C//DTD SVG 1.1//EN" "http://www.w3.org/Graphics/SVG/1.1/DTD/svg11.dtd"><svg t="1724586814193" class="icon" viewBox="0 0 1024 1024" version="1.1" xmlns="http://www.w3.org/2000/svg" p-id="9343" xmlns:xlink="http://www.w3.org/1999/xlink" width="64" height="64"><path d="M716.27206 319.391l263.602 40.229c42.526 6.49 59.15 58.926 28.131 88.733L815.73206 633.111a51.903 51.903 0 0 0-15.255 45.833l43.197 263.132c6.969 42.45-37.764 74.465-75.697 54.175l-235.13-125.77a51.902 51.902 0 0 0-48.303-0.345L247.63906 992.531c-38.219 19.746-82.49-12.905-74.915-55.251l46.954-262.487a51.902 51.902 0 0 0-14.598-46.046L15.46806 441.259c-30.59-30.247-13.217-82.44 29.397-88.322l264.15-36.457a51.901 51.901 0 0 0 39.281-28.113L468.01406 50.099c19.314-38.439 74.321-38.046 93.083 0.665l116.3 239.955a51.9 51.9 0 0 0 38.875 28.672z" fill="#2752E7" p-id="9344"></path></svg>