<svg width="32" height="32" viewBox="0 0 32 32" fill="none" xmlns="http://www.w3.org/2000/svg">
<g id="Frame" clip-path="url(#clip0_11_363)">
<path id="Vector" d="M0 16C0 11.7565 1.68571 7.68687 4.68629 4.68629C7.68687 1.68571 11.7565 0 16 0C20.2435 0 24.3131 1.68571 27.3137 4.68629C30.3143 7.68687 32 11.7565 32 16C32 20.2435 30.3143 24.3131 27.3137 27.3137C24.3131 30.3143 20.2435 32 16 32C11.7565 32 7.68687 30.3143 4.68629 27.3137C1.68571 24.3131 0 20.2435 0 16Z" fill="#ED4C5C"/>
<path id="Vector_2" d="M14.9548 18.2512C15.3166 19.216 16.2412 19.3567 16.7035 20.6029C16.9045 21.1456 16.5226 22.1909 16.7035 22.7336C16.8324 23.0754 17.0738 23.3631 17.388 23.5495C17.7022 23.7358 18.0704 23.8096 18.4322 23.7587C17.3864 24.1252 16.239 24.0699 15.2334 23.6046C14.2277 23.1393 13.4428 22.3006 13.0452 21.2662C12.8512 20.7508 12.7625 20.2017 12.7844 19.6514C12.8062 19.1011 12.9381 18.5607 13.1724 18.0623C13.4066 17.5638 13.7384 17.1174 14.1481 16.7494C14.5578 16.3813 15.0372 16.0991 15.5578 15.9195C15.2405 16.2068 15.0143 16.5807 14.9072 16.9951C14.8 17.4094 14.8166 17.8461 14.9548 18.2512Z" fill="white"/>
<path id="Vector_3" d="M14.6332 21.7084C14.6332 21.6424 14.6462 21.5771 14.6714 21.5161C14.6967 21.4552 14.7337 21.3998 14.7804 21.3531C14.827 21.3064 14.8824 21.2694 14.9434 21.2442C15.0044 21.2189 15.0697 21.2059 15.1357 21.2059C15.2017 21.2059 15.267 21.2189 15.328 21.2442C15.389 21.2694 15.4444 21.3064 15.491 21.3531C15.5377 21.3998 15.5747 21.4552 15.6 21.5161C15.6252 21.5771 15.6382 21.6424 15.6382 21.7084C15.6382 21.7744 15.6252 21.8398 15.6 21.9007C15.5747 21.9617 15.5377 22.0171 15.491 22.0638C15.4444 22.1104 15.389 22.1474 15.328 22.1727C15.267 22.1979 15.2017 22.2109 15.1357 22.2109C15.0697 22.2109 15.0044 22.1979 14.9434 22.1727C14.8824 22.1474 14.827 22.1104 14.7804 22.0638C14.7337 22.0171 14.6967 21.9617 14.6714 21.9007C14.6462 21.8398 14.6332 21.7744 14.6332 21.7084Z" fill="#ED4C5C"/>
<path id="Vector_4" d="M13.1658 16.1205C12.3417 16.7437 12.4824 17.6482 11.397 18.4723C10.9346 18.8341 9.80901 18.7939 9.3869 19.1557C9.07598 19.3754 8.8583 19.7033 8.7765 20.0751C8.6947 20.4469 8.75468 20.8359 8.94469 21.1658C8.595 20.7434 8.33539 20.254 8.18184 19.7277C8.0283 19.2013 7.98405 18.6491 8.05183 18.105C8.11961 17.5608 8.29797 17.0364 8.57597 16.5637C8.85396 16.0911 9.22569 15.6804 9.66831 15.3567C10.1098 15.0055 10.6164 14.7451 11.159 14.5903C11.7015 14.4355 12.2693 14.3895 12.8296 14.4549C13.39 14.5202 13.9319 14.6957 14.4243 14.9712C14.9166 15.2467 15.3496 15.6168 15.6985 16.0602C15.32 15.8123 14.8751 15.6853 14.4227 15.6961C13.9704 15.7068 13.532 15.8549 13.1658 16.1205Z" fill="white"/>
<path id="Vector_5" d="M9.56787 17.3669C9.56787 17.3009 9.58087 17.2355 9.60612 17.1746C9.63138 17.1136 9.66839 17.0582 9.71505 17.0115C9.76172 16.9649 9.81711 16.9279 9.87808 16.9026C9.93905 16.8774 10.0044 16.8644 10.0704 16.8644C10.1364 16.8644 10.2017 16.8774 10.2627 16.9026C10.3237 16.9279 10.3791 16.9649 10.4257 17.0115C10.4724 17.0582 10.5094 17.1136 10.5346 17.1746C10.5599 17.2355 10.5729 17.3009 10.5729 17.3669C10.5729 17.4329 10.5599 17.4982 10.5346 17.5592C10.5094 17.6201 10.4724 17.6755 10.4257 17.7222C10.3791 17.7689 10.3237 17.8059 10.2627 17.8311C10.2017 17.8564 10.1364 17.8694 10.0704 17.8694C10.0044 17.8694 9.93905 17.8564 9.87808 17.8311C9.81711 17.8059 9.76172 17.7689 9.71505 17.7222C9.66839 17.6755 9.63138 17.6201 9.60612 17.5592C9.58087 17.4982 9.56787 17.4329 9.56787 17.3669Z" fill="#ED4C5C"/>
<path id="Vector_6" d="M14.6733 13.789C13.809 13.2061 12.9648 13.6282 11.8392 12.8845C11.3568 12.5629 11.0351 11.4976 10.5326 11.176C10.2314 10.9607 9.86287 10.8605 9.49407 10.8937C9.12526 10.9269 8.78058 11.0912 8.52258 11.3569C9.15769 10.4368 10.1289 9.80324 11.2269 9.59267C12.3248 9.38211 13.4615 9.61144 14.3919 10.2312C14.8511 10.5202 15.2471 10.8991 15.5559 11.3451C15.8648 11.7912 16.0802 12.2951 16.1891 12.8266C16.298 13.3581 16.2982 13.9061 16.1897 14.4377C16.0812 14.9693 15.8663 15.4734 15.5578 15.9197C15.6231 15.5174 15.5749 15.1049 15.4187 14.7285C15.2624 14.3521 15.0043 14.0268 14.6733 13.789Z" fill="white"/>
<path id="Vector_7" d="M12.3216 11.5981C12.3792 11.6788 12.4594 11.7407 12.5522 11.7759C12.6449 11.8111 12.746 11.8181 12.8427 11.7959C12.9394 11.7738 13.0274 11.7235 13.0956 11.6514C13.1637 11.5794 13.2091 11.4888 13.2258 11.391C13.2426 11.2932 13.23 11.1927 13.1898 11.102C13.1495 11.0114 13.0833 10.9347 12.9995 10.8816C12.9157 10.8285 12.818 10.8014 12.7188 10.8037C12.6197 10.806 12.5234 10.8376 12.4422 10.8945C12.3878 10.9326 12.3416 10.9811 12.306 11.0372C12.2705 11.0932 12.2465 11.1558 12.2353 11.2212C12.224 11.2866 12.2259 11.3536 12.2407 11.4183C12.2555 11.4829 12.283 11.5441 12.3216 11.5981Z" fill="#ED4C5C"/>
<path id="Vector_8" d="M17.3869 14.4724C17.6884 13.4874 17.0251 12.8442 17.3869 11.5578C17.5477 10.995 18.4723 10.3719 18.6331 9.80905C18.7331 9.4634 18.7095 9.09371 18.5665 8.76355C18.4234 8.4334 18.1698 8.1634 17.8492 8C18.3773 8.14395 18.8717 8.3912 19.3037 8.72744C19.7357 9.06368 20.0967 9.48224 20.3659 9.95891C20.635 10.4356 20.807 10.9609 20.8719 11.5044C20.9367 12.048 20.8931 12.599 20.7437 13.1256C20.4139 14.1754 19.6873 15.0549 18.7186 15.5768C17.75 16.0987 16.6158 16.2217 15.5577 15.9196C15.9695 15.8798 16.3611 15.7222 16.6855 15.4655C17.01 15.2088 17.2535 14.864 17.3869 14.4724Z" fill="white"/>
<path id="Vector_9" d="M19.0352 11.5981C18.9639 11.668 18.915 11.7575 18.8948 11.8552C18.8746 11.953 18.884 12.0545 18.9217 12.1469C18.9594 12.2393 19.0238 12.3184 19.1067 12.3741C19.1895 12.4297 19.2871 12.4595 19.3869 12.4595C19.4867 12.4595 19.5843 12.4297 19.6671 12.3741C19.75 12.3184 19.8144 12.2393 19.8521 12.1469C19.8899 12.0545 19.8992 11.953 19.879 11.8552C19.8588 11.7575 19.81 11.668 19.7387 11.5981C19.6447 11.506 19.5184 11.4544 19.3869 11.4544C19.2554 11.4544 19.1291 11.506 19.0352 11.5981Z" fill="#ED4C5C"/>
<path id="Vector_10" d="M17.5678 17.2262C18.613 17.2262 19.0552 16.382 20.402 16.3418C20.9849 16.3418 21.8894 16.985 22.412 16.9649C22.777 16.9599 23.1285 16.826 23.4044 16.5869C23.6802 16.3478 23.8627 16.0189 23.9195 15.6584C23.8142 16.6743 23.344 17.6176 22.5962 18.3134C21.8484 19.0091 20.8737 19.4101 19.8528 19.442C18.8319 19.4739 17.834 19.1346 17.0443 18.4869C16.2545 17.8392 15.7263 16.9271 15.5577 15.9197C15.7337 16.3062 16.0163 16.6344 16.3724 16.8658C16.7284 17.0973 17.1431 17.2223 17.5678 17.2262Z" fill="white"/>
<path id="Vector_11" d="M21.0854 17.9295C20.9912 17.8994 20.8902 17.8977 20.7951 17.9247C20.7 17.9517 20.6149 18.0061 20.5506 18.0812C20.4863 18.1563 20.4455 18.2486 20.4334 18.3468C20.4214 18.4449 20.4385 18.5444 20.4827 18.6329C20.527 18.7213 20.5963 18.7947 20.682 18.8439C20.7678 18.8932 20.8661 18.916 20.9648 18.9096C21.0635 18.9032 21.1581 18.8678 21.2367 18.8079C21.3154 18.748 21.3746 18.6662 21.407 18.5727C21.4459 18.4447 21.4342 18.3067 21.3744 18.187C21.3146 18.0674 21.2111 17.9752 21.0854 17.9295Z" fill="#ED4C5C"/>
</g>
<defs>
<clipPath id="clip0_11_363">
<rect width="32" height="32" fill="white" transform="matrix(1 0 0 -1 0 32)"/>
</clipPath>
</defs>
</svg>
