<svg width="24" height="24" viewBox="0 0 24 24" fill="none" xmlns="http://www.w3.org/2000/svg"><path d="M10.497 18.754v.9c0 .9.6 1.5 1.5 1.5H21c.9 0 1.5-.6 1.5-1.5V4.351c0-.9-.6-1.5-1.5-1.5h-9.002c-.9 0-1.5.6-1.5 1.5v2.4c0 .45-.3.75-.75.75s-.75-.3-.75-.75v-2.25a3.01 3.01 0 0 1 3-3.001H21c1.65 0 3 1.35 3 3v15.004a3.01 3.01 0 0 1-3 3.001h-9.003c-1.65 0-3-1.35-3-3v-2.251c0-.45.3-.75.75-.75s.75.3.75.75v1.5z" fill="#FF3B30"/><path d="m1.198 11.403 4.2-4.201c.3-.3.75-.3 1.051 0 .3.3.3.75 0 1.05l-3 3H16.35c.45 0 .75.3.75.75s-.3.751-.75.751H3.448l3.001 3c.3.3.3.75 0 1.051-.3.3-.75.3-1.05 0l-4.201-4.201c-.3-.45-.3-.9 0-1.2z" fill="#FF3B30"/></svg>