<svg width="24" height="24" viewBox="0 0 24 24" fill="none" xmlns="http://www.w3.org/2000/svg"><path d="M20.63 23.144H3.37c-1.057 0-1.917-.813-1.917-1.812v-2.549c0-2.882 2.58-5.227 5.753-5.227h9.588c3.172 0 5.753 2.345 5.753 5.227v2.549c0 .999-.86 1.812-1.918 1.812zM3.37 21.217l17.26.01v-2.444c0-1.825-1.721-3.31-3.836-3.31H7.206c-2.115 0-3.835 1.485-3.835 3.31v2.434zm8.622-8.38A6 6 0 0 1 6 6.844 6 6 0 0 1 11.992.852a6 6 0 0 1 5.993 5.992 6 6 0 0 1-5.993 5.993zm0-10.068a4.08 4.08 0 0 0-4.075 4.075 4.08 4.08 0 0 0 4.075 4.075 4.08 4.08 0 0 0 4.075-4.075 4.08 4.08 0 0 0-4.075-4.075z" fill="#333"/></svg>