<svg width="20" height="20" viewBox="0 0 20 20" fill="none" xmlns="http://www.w3.org/2000/svg">
<path d="M9.7402 1.25391C6.13474 1.25391 3.18747 3.89062 3.18747 7.17773C3.18747 7.60937 3.23825 8.03516 3.33786 8.44727L2.41013 10.5234C2.27927 10.8164 2.41013 11.1602 2.7031 11.293C2.75192 11.3145 2.80466 11.3301 2.85935 11.3379C3.84567 11.4785 4.25388 11.9043 4.25388 12.7441V14.7734C4.25388 15.416 4.77536 15.9375 5.41794 15.9375H5.79489C6.43747 15.9375 6.95895 16.459 6.95895 17.1016V18.1309C6.95895 18.4531 7.21872 18.7129 7.54099 18.7129H13.8261C14.1484 18.7129 14.4082 18.4531 14.4082 18.1309C14.4082 17.8086 14.1484 17.5488 13.8261 17.5488H8.12302V17.1016C8.12302 15.8164 7.08005 14.7734 5.79489 14.7734H5.41794V12.7441C5.41794 11.5508 4.832 10.7305 3.75974 10.3594L4.48435 8.73633C4.54099 8.61133 4.55075 8.4707 4.51364 8.33984C4.40622 7.96094 4.35153 7.57031 4.35153 7.17773C4.35153 4.56445 6.74997 2.41797 9.7402 2.41797C12.7304 2.41797 15.1289 4.56445 15.1289 7.17773C15.1289 7.5 15.3886 7.75977 15.7109 7.75977C16.0332 7.75977 16.2929 7.5 16.2929 7.17773C16.291 3.89062 13.3457 1.25391 9.7402 1.25391ZM17.0527 8.81836C16.7304 8.81836 16.4707 9.07812 16.4707 9.40039V15.9473C16.4707 16.2695 16.7304 16.5293 17.0527 16.5293C17.375 16.5293 17.6347 16.2695 17.6347 15.9473V9.40039C17.6347 9.08008 17.375 8.81836 17.0527 8.81836Z" fill="#014CFA"/>
<path d="M12.8696 9.15914C12.6567 8.69429 11.9887 8.71187 11.7993 9.18648L9.38521 15.2548C9.26607 15.5537 9.41255 15.8916 9.71138 16.0107C10.0102 16.1298 10.3481 15.9834 10.4672 15.6845L11.061 14.1943C11.0708 14.1943 11.0805 14.2002 11.0903 14.2002H13.9047L14.5981 15.7119C14.7329 16.0029 15.0786 16.1318 15.3696 15.997C15.6606 15.8623 15.7895 15.5166 15.6547 15.2255C15.6567 15.2275 12.8696 9.15914 12.8696 9.15914ZM11.52 13.038L12.3793 10.8798L13.3715 13.038H11.52Z" fill="#014CFA"/>
</svg>
