<svg width="20" height="20" viewBox="0 0 20 20" fill="none" xmlns="http://www.w3.org/2000/svg">
<path d="M16.8359 10.0007C16.8358 11.5141 16.3332 12.9846 15.4071 14.1816C14.481 15.3785 13.1837 16.2342 11.7188 16.6143C10.2539 16.9944 8.70426 16.8774 7.31301 16.2817C5.92176 15.686 4.76762 14.6454 4.03166 13.3229C3.2957 12.0005 3.01957 10.4712 3.24659 8.97493C3.4736 7.47865 4.19092 6.10006 5.286 5.05545C6.38108 4.01084 7.79195 3.35932 9.29728 3.20311C10.8026 3.0469 12.3172 3.39484 13.6034 4.19233C13.7537 4.28571 13.935 4.31556 14.1073 4.27532C14.2796 4.23507 14.4288 4.12803 14.5222 3.97774C14.6156 3.82746 14.6454 3.64623 14.6052 3.47393C14.5649 3.30163 14.4579 3.15237 14.3076 3.05899C13.0154 2.25599 11.5239 1.83158 10.0026 1.83399C5.4926 1.83399 1.83594 5.49066 1.83594 10.0007C1.83594 14.5107 5.4926 18.1673 10.0026 18.1673C14.5126 18.1673 18.1693 14.5107 18.1693 10.0007C18.1712 8.56697 17.794 7.15826 17.0759 5.91733C16.9851 5.7692 16.84 5.66239 16.6716 5.61966C16.5031 5.57693 16.3247 5.60166 16.1742 5.68858C16.0237 5.77549 15.9131 5.91773 15.866 6.08498C15.8188 6.25223 15.8388 6.43129 15.9218 6.58399C16.5226 7.6223 16.838 8.80107 16.8359 10.0007Z" fill="#0C0C0C"/>
<path d="M7.3375 11.117C6.72083 10.5004 6.72083 9.50036 7.3375 8.8837L9.05167 7.16953C9.66833 6.55286 10.6683 6.55286 11.285 7.16953L12.9992 8.8837C13.6158 9.50036 13.6158 10.5004 12.9992 11.117L11.285 12.8312C10.6683 13.4479 9.66833 13.4479 9.05167 12.8312L7.3375 11.117ZM8.22083 9.76703C8.19009 9.79762 8.1657 9.83398 8.14906 9.87402C8.13241 9.91406 8.12384 9.957 8.12384 10.0004C8.12384 10.0437 8.13241 10.0867 8.14906 10.1267C8.1657 10.1668 8.19009 10.2031 8.22083 10.2337L9.93583 11.947C9.99754 12.0086 10.0812 12.0432 10.1683 12.0432C10.2555 12.0432 10.3391 12.0086 10.4008 11.947L12.115 10.2329C12.1766 10.1712 12.2112 10.0875 12.2112 10.0004C12.2112 9.91319 12.1766 9.82957 12.115 9.76786L10.4008 8.0537C10.3391 7.99212 10.2555 7.95754 10.1683 7.95754C10.0812 7.95754 9.99754 7.99212 9.93583 8.0537L8.22083 9.76703Z" fill="#0C0C0C"/>
</svg>
