<svg width="18" height="18" viewBox="0 0 18 18" fill="none" xmlns="http://www.w3.org/2000/svg">
<path d="M17.0276 6.2172L13.9791 4.66798L15.6865 1.28376C15.8013 1.1662 15.866 1.00867 15.867 0.844341C15.868 0.680009 15.8052 0.521697 15.6919 0.40274C15.5748 0.286448 15.4172 0.220012 15.2522 0.217367C15.0872 0.214722 14.9275 0.276073 14.8068 0.388552L12.9164 4.12951L10.2882 2.79987C10.0064 2.65799 9.7416 2.58637 9.50175 2.58637C9.06732 2.58637 8.78423 2.81338 8.66194 3.02823L8.63965 3.07147C6.70735 7.33063 1.13004 9.67709 1.07193 9.70141C0.828709 9.80884 0.657099 9.99936 0.588185 10.2372C0.475355 10.627 0.688854 10.9756 0.732769 11.0419L0.801008 11.1446L10.9861 17.4522C11.3442 17.6725 11.6496 17.7799 11.9185 17.7799C12.1752 17.7799 12.334 17.6813 12.4076 17.6198L12.436 17.5948C16.1189 14.0869 17.3046 8.92985 17.4208 7.74074C17.5194 6.72054 17.2195 6.3503 17.0276 6.2172ZM16.2986 7.62926C16.2979 7.63737 16.183 8.49677 15.7871 9.78924C13.9474 8.88525 9.74565 6.46177 8.36737 5.66183C8.8379 5.06367 9.24332 4.41704 9.57675 3.73291C9.62269 3.7444 9.69092 3.76804 9.78349 3.81399C10.3652 4.10721 14.7453 6.32597 16.0763 7.00025L16.2952 7.11105C16.3107 7.19551 16.3249 7.35631 16.2986 7.62926ZM11.1679 13.3741C11.2865 13.2572 11.3545 13.0984 11.3572 12.9318C11.3598 12.7652 11.2969 12.6043 11.182 12.4836C11.0649 12.3674 10.9074 12.3009 10.7424 12.2983C10.5774 12.2956 10.4177 12.357 10.297 12.4695L8.34102 14.3747C8.31885 14.3962 8.29851 14.4195 8.28021 14.4443L5.30272 12.6005L7.30461 11.2283C7.44174 11.1336 7.53596 10.9885 7.56683 10.8247C7.59769 10.6609 7.5627 10.4916 7.46946 10.3534C7.42326 10.2854 7.36411 10.2272 7.29539 10.1821C7.22668 10.1369 7.14975 10.1058 7.069 10.0904C6.98824 10.0751 6.90525 10.0758 6.82477 10.0925C6.74428 10.1092 6.66788 10.1416 6.59993 10.1879L4.34941 11.7303C4.2822 11.7768 4.225 11.8363 4.18118 11.9053L1.97525 10.5399C3.08733 10.021 5.59797 8.69878 7.6181 6.53677C9.03962 7.36374 13.513 9.94937 15.4203 10.8702C14.8216 12.4728 13.7177 14.7443 11.8225 16.6144C11.7369 16.5783 11.6545 16.5351 11.5759 16.4854L9.37338 15.1213L11.1679 13.3741Z" fill="#8F92A1"/>
</svg>
