<svg width="20" height="20" viewBox="0 0 20 20" fill="none" xmlns="http://www.w3.org/2000/svg">
<g clip-path="url(#clip0_1677_16100)">
<path d="M14.1186 1.77539C14.658 1.77539 15.1922 1.88164 15.6906 2.08808C16.189 2.29452 16.6418 2.59711 17.0233 2.97856C17.4047 3.36001 17.7073 3.81286 17.9138 4.31125C18.1202 4.80965 18.2264 5.34382 18.2264 5.88327V14.1186C18.2264 14.658 18.1202 15.1922 17.9138 15.6906C17.7073 16.189 17.4047 16.6418 17.0233 17.0233C16.6418 17.4047 16.189 17.7073 15.6906 17.9138C15.1922 18.1202 14.658 18.2264 14.1186 18.2264H5.88327C5.34382 18.2264 4.80965 18.1202 4.31125 17.9138C3.81286 17.7073 3.36001 17.4047 2.97856 17.0233C2.59711 16.6418 2.29452 16.189 2.08808 15.6906C1.88164 15.1922 1.77539 14.658 1.77539 14.1186V5.88327C1.77539 5.34382 1.88164 4.80965 2.08808 4.31125C2.29452 3.81286 2.59711 3.36001 2.97856 2.97856C3.36001 2.59711 3.81286 2.29452 4.31125 2.08808C4.80965 1.88164 5.34382 1.77539 5.88327 1.77539H14.1186ZM14.1186 2.93233H5.88327C5.49575 2.93233 5.11202 3.00866 4.754 3.15696C4.39597 3.30526 4.07066 3.52262 3.79664 3.79664C3.52262 4.07066 3.30526 4.39597 3.15696 4.754C3.00866 5.11202 2.93233 5.49575 2.93233 5.88327V14.1186C2.93233 14.5061 3.00866 14.8898 3.15696 15.2478C3.30526 15.6059 3.52262 15.9312 3.79664 16.2052C4.07066 16.4792 4.39597 16.6966 4.754 16.8449C5.11202 16.9932 5.49575 17.0695 5.88327 17.0695H14.1186C14.5061 17.0695 14.8898 16.9932 15.2478 16.8449C15.6059 16.6966 15.9312 16.4792 16.2052 16.2052C16.4792 15.9312 16.6966 15.6059 16.8449 15.2478C16.9932 14.8898 17.0695 14.5061 17.0695 14.1186V5.88327C17.0695 5.49575 16.9932 5.11202 16.8449 4.754C16.6966 4.39597 16.4792 4.07066 16.2052 3.79664C15.9312 3.52262 15.6059 3.30526 15.2478 3.15696C14.8898 3.00866 14.5061 2.93233 14.1186 2.93233Z" fill="#0C0C0C" stroke="#0C0C0C" stroke-width="0.0195312"/>
<mask id="path-2-outside-1_1677_16100" maskUnits="userSpaceOnUse" x="5" y="6" width="11" height="7" fill="black">
<rect fill="white" x="5" y="6" width="11" height="7"/>
<path d="M5.5148 7.2876H6.0494V12H5.5148V7.2876ZM7.04141 7.2876H8.96861C10.051 7.2876 10.5922 7.7496 10.5922 8.6736C10.5922 9.6042 10.0444 10.0728 8.96201 10.0728H7.58261V12H7.04141V7.2876ZM7.58261 7.7562V9.6042H8.93561C9.31841 9.6042 9.59561 9.525 9.78041 9.3732C9.95861 9.2214 10.051 8.9904 10.051 8.6736C10.051 8.3568 9.95861 8.1258 9.77381 7.9872C9.58901 7.8288 9.31181 7.7562 8.93561 7.7562H7.58261ZM13.3352 7.1952C14.0348 7.1952 14.5958 7.4262 15.005 7.9014C15.3878 8.3502 15.5858 8.931 15.5858 9.6504C15.5858 10.3632 15.3878 10.9374 15.005 11.3862C14.5958 11.8548 14.0348 12.0924 13.3286 12.0924C12.6224 12.0924 12.068 11.8548 11.6588 11.3862C11.2694 10.9374 11.078 10.3566 11.078 9.6504C11.078 8.9376 11.2694 8.3568 11.6588 7.908C12.068 7.4328 12.6224 7.1952 13.3352 7.1952ZM13.3352 7.677C12.794 7.677 12.365 7.8618 12.0548 8.238C11.7644 8.5944 11.6192 9.063 11.6192 9.6504C11.6192 10.2312 11.7644 10.6998 12.0548 11.0562C12.3584 11.4258 12.7874 11.6106 13.3286 11.6106C13.8698 11.6106 14.2988 11.4258 14.6024 11.0694C14.8928 10.713 15.0446 10.2444 15.0446 9.6504C15.0446 9.0498 14.8928 8.5746 14.6024 8.2182C14.2988 7.8552 13.8764 7.677 13.3352 7.677Z"/>
</mask>
<path d="M5.5148 7.2876H6.0494V12H5.5148V7.2876ZM7.04141 7.2876H8.96861C10.051 7.2876 10.5922 7.7496 10.5922 8.6736C10.5922 9.6042 10.0444 10.0728 8.96201 10.0728H7.58261V12H7.04141V7.2876ZM7.58261 7.7562V9.6042H8.93561C9.31841 9.6042 9.59561 9.525 9.78041 9.3732C9.95861 9.2214 10.051 8.9904 10.051 8.6736C10.051 8.3568 9.95861 8.1258 9.77381 7.9872C9.58901 7.8288 9.31181 7.7562 8.93561 7.7562H7.58261ZM13.3352 7.1952C14.0348 7.1952 14.5958 7.4262 15.005 7.9014C15.3878 8.3502 15.5858 8.931 15.5858 9.6504C15.5858 10.3632 15.3878 10.9374 15.005 11.3862C14.5958 11.8548 14.0348 12.0924 13.3286 12.0924C12.6224 12.0924 12.068 11.8548 11.6588 11.3862C11.2694 10.9374 11.078 10.3566 11.078 9.6504C11.078 8.9376 11.2694 8.3568 11.6588 7.908C12.068 7.4328 12.6224 7.1952 13.3352 7.1952ZM13.3352 7.677C12.794 7.677 12.365 7.8618 12.0548 8.238C11.7644 8.5944 11.6192 9.063 11.6192 9.6504C11.6192 10.2312 11.7644 10.6998 12.0548 11.0562C12.3584 11.4258 12.7874 11.6106 13.3286 11.6106C13.8698 11.6106 14.2988 11.4258 14.6024 11.0694C14.8928 10.713 15.0446 10.2444 15.0446 9.6504C15.0446 9.0498 14.8928 8.5746 14.6024 8.2182C14.2988 7.8552 13.8764 7.677 13.3352 7.677Z" fill="#0C0C0C"/>
<path d="M5.5148 7.2876V6.9876H5.2148V7.2876H5.5148ZM6.0494 7.2876H6.3494V6.9876H6.0494V7.2876ZM6.0494 12V12.3H6.3494V12H6.0494ZM5.5148 12H5.2148V12.3H5.5148V12ZM5.5148 7.5876H6.0494V6.9876H5.5148V7.5876ZM5.7494 7.2876V12H6.3494V7.2876H5.7494ZM6.0494 11.7H5.5148V12.3H6.0494V11.7ZM5.8148 12V7.2876H5.2148V12H5.8148ZM7.04141 7.2876V6.9876H6.74141V7.2876H7.04141ZM7.58261 10.0728V9.7728H7.28261V10.0728H7.58261ZM7.58261 12V12.3H7.88261V12H7.58261ZM7.04141 12H6.74141V12.3H7.04141V12ZM7.58261 7.7562V7.4562H7.28261V7.7562H7.58261ZM7.58261 9.6042H7.28261V9.9042H7.58261V9.6042ZM9.78041 9.3732L9.97086 9.60505L9.97495 9.60157L9.78041 9.3732ZM9.77381 7.9872L9.57857 8.21498L9.58599 8.22134L9.59381 8.2272L9.77381 7.9872ZM7.04141 7.5876H8.96861V6.9876H7.04141V7.5876ZM8.96861 7.5876C9.47415 7.5876 9.79734 7.6965 9.99153 7.86227C10.1766 8.02028 10.2922 8.27134 10.2922 8.6736H10.8922C10.8922 8.15185 10.7372 7.70992 10.3811 7.40593C10.0341 7.1097 9.54547 6.9876 8.96861 6.9876V7.5876ZM10.2922 8.6736C10.2922 9.07879 10.1752 9.33369 9.98772 9.49445C9.79158 9.66265 9.46663 9.7728 8.96201 9.7728V10.3728C9.53979 10.3728 10.0299 10.2487 10.3783 9.9499C10.7353 9.64371 10.8922 9.19901 10.8922 8.6736H10.2922ZM8.96201 9.7728H7.58261V10.3728H8.96201V9.7728ZM7.28261 10.0728V12H7.88261V10.0728H7.28261ZM7.58261 11.7H7.04141V12.3H7.58261V11.7ZM7.34141 12V7.2876H6.74141V12H7.34141ZM7.28261 7.7562V9.6042H7.88261V7.7562H7.28261ZM7.58261 9.9042H8.93561V9.3042H7.58261V9.9042ZM8.93561 9.9042C9.35315 9.9042 9.71058 9.8188 9.97083 9.60502L9.58999 9.14138C9.48065 9.2312 9.28367 9.3042 8.93561 9.3042V9.9042ZM9.97495 9.60157C10.2391 9.37658 10.351 9.04982 10.351 8.6736H9.75101C9.75101 8.93098 9.67815 9.06622 9.58587 9.14483L9.97495 9.60157ZM10.351 8.6736C10.351 8.30132 10.2407 7.96233 9.95381 7.7472L9.59381 8.2272C9.67657 8.28927 9.75101 8.41228 9.75101 8.6736H10.351ZM9.96905 7.75942C9.70467 7.53281 9.34118 7.4562 8.93561 7.4562V8.0562C9.28244 8.0562 9.47336 8.12479 9.57857 8.21498L9.96905 7.75942ZM8.93561 7.4562H7.58261V8.0562H8.93561V7.4562ZM15.005 7.9014L15.2332 7.70671L15.2323 7.70564L15.005 7.9014ZM15.005 11.3862L15.231 11.5835L15.2332 11.5809L15.005 11.3862ZM11.6588 11.3862L11.4322 11.5828L11.4328 11.5835L11.6588 11.3862ZM11.6588 7.908L11.8854 8.10461L11.8861 8.10376L11.6588 7.908ZM12.0548 8.238L11.8233 8.04714L11.8222 8.0485L12.0548 8.238ZM12.0548 11.0562L11.8222 11.2457L11.823 11.2466L12.0548 11.0562ZM14.6024 11.0694L14.8308 11.264L14.835 11.2589L14.6024 11.0694ZM14.6024 8.2182L14.835 8.02868L14.8325 8.02573L14.6024 8.2182ZM13.3352 7.4952C13.9621 7.4952 14.4344 7.6985 14.7777 8.09716L15.2323 7.70564C14.7572 7.1539 14.1074 6.8952 13.3352 6.8952V7.4952ZM14.7767 8.09608C15.1051 8.48111 15.2858 8.98882 15.2858 9.6504H15.8858C15.8858 8.87317 15.6704 8.21929 15.2332 7.70672L14.7767 8.09608ZM15.2858 9.6504C15.2858 10.3042 15.1058 10.8057 14.7767 11.1915L15.2332 11.5809C15.6698 11.0691 15.8858 10.4222 15.8858 9.6504H15.2858ZM14.779 11.1889C14.4344 11.5835 13.9605 11.7924 13.3286 11.7924V12.3924C14.109 12.3924 14.7571 12.1261 15.231 11.5835L14.779 11.1889ZM13.3286 11.7924C12.6976 11.7924 12.2299 11.5841 11.8848 11.1889L11.4328 11.5835C11.9061 12.1255 12.5471 12.3924 13.3286 12.3924V11.7924ZM11.8854 11.1896C11.5528 10.8063 11.378 10.3003 11.378 9.6504H10.778C10.778 10.4129 10.986 11.0685 11.4322 11.5828L11.8854 11.1896ZM11.378 9.6504C11.378 8.99353 11.553 8.48767 11.8854 8.10461L11.4322 7.71139C10.9858 8.22593 10.778 8.88167 10.778 9.6504H11.378ZM11.8861 8.10376C12.2307 7.70354 12.6974 7.4952 13.3352 7.4952V6.8952C12.5474 6.8952 11.9052 7.16206 11.4315 7.71224L11.8861 8.10376ZM13.3352 7.377C12.7177 7.377 12.1985 7.59217 11.8233 8.04715L12.2862 8.42885C12.5315 8.13143 12.8702 7.977 13.3352 7.977V7.377ZM11.8222 8.0485C11.4775 8.47154 11.3192 9.01301 11.3192 9.6504H11.9192C11.9192 9.11299 12.0512 8.71726 12.2874 8.4275L11.8222 8.0485ZM11.3192 9.6504C11.3192 10.2817 11.4777 10.823 11.8222 11.2457L12.2874 10.8667C12.051 10.5766 11.9192 10.1807 11.9192 9.6504H11.3192ZM11.823 11.2466C12.1922 11.6962 12.7122 11.9106 13.3286 11.9106V11.3106C12.8625 11.3106 12.5245 11.1554 12.2866 10.8658L11.823 11.2466ZM13.3286 11.9106C13.9442 11.9106 14.462 11.6969 14.8308 11.2639L14.374 10.8749C14.1356 11.1547 13.7953 11.3106 13.3286 11.3106V11.9106ZM14.835 11.2589C15.1784 10.8374 15.3446 10.2969 15.3446 9.6504H14.7446C14.7446 10.1919 14.6072 10.5886 14.3698 10.8799L14.835 11.2589ZM15.3446 9.6504C15.3446 8.99867 15.1791 8.45103 14.835 8.0287L14.3698 8.4077C14.6065 8.69817 14.7446 9.10093 14.7446 9.6504H15.3446ZM14.8325 8.02573C14.4625 7.5833 13.9494 7.377 13.3352 7.377V7.977C13.8034 7.977 14.1351 8.1271 14.3723 8.41067L14.8325 8.02573Z" fill="#0C0C0C" mask="url(#path-2-outside-1_1677_16100)"/>
</g>
<defs>
<clipPath id="clip0_1677_16100">
<rect width="20" height="20" fill="white"/>
</clipPath>
</defs>
</svg>
