<svg width="20" height="20" viewBox="0 0 20 20" fill="none" xmlns="http://www.w3.org/2000/svg">
<path d="M17.3157 17.3231H2.6687C2.24357 17.3231 1.89844 16.9779 1.89844 16.5526V3.44802C1.89844 3.02288 2.24355 2.67773 2.6687 2.67773H11.5348V3.83307H3.44085C3.22657 3.83307 3.05396 4.00561 3.05396 4.21827V15.7823C3.05396 15.995 3.22657 16.1674 3.44085 16.1674H16.5438C16.7579 16.1674 16.9307 15.995 16.9307 15.7823V8.45891H18.0862V16.5526C18.0862 16.9779 17.741 17.3231 17.3157 17.3231ZM16.1587 6.53125C15.9509 6.53125 15.7526 6.48946 15.5712 6.41453L8.9014 13.0844L8.83684 13.0181L8.77056 13.0844L6.52222 10.836L4.66097 12.6974L3.82954 11.8662L6.46654 9.22917L6.52394 9.28658L6.58152 9.22917L8.83684 11.4845L14.7383 5.58289C14.6614 5.39997 14.618 5.20125 14.618 4.99046C14.618 4.13809 15.3081 3.44799 16.1587 3.44799C17.0109 3.44799 17.7011 4.13807 17.7011 4.99046C17.7011 5.84091 17.0109 6.53125 16.1587 6.53125Z" fill="#014CFA"/>
</svg>
