<svg width="20" height="20" viewBox="0 0 20 20" fill="none" xmlns="http://www.w3.org/2000/svg">
<path d="M8.87393 8.87393V6.16602H10.1237V8.87393H12.8316V10.1237H10.1237V12.8316H8.87393V10.1237H6.16602V8.87393H8.87393ZM4.41838 18.5653C3.4275 18.8655 2.38084 18.3057 2.08057 17.3148C2.02715 17.1385 2 16.9553 2 16.7711V3.87471C2 2.83934 2.83934 2 3.87471 2H15.1229C16.1583 2 16.9977 2.83934 16.9977 3.87471V16.7711C16.9977 17.8065 16.1583 18.6458 15.1229 18.6458C14.9388 18.6458 14.7556 18.6187 14.5793 18.5653L9.49883 17.0257L4.41838 18.5653ZM3.87471 3.2498C3.52959 3.2498 3.2498 3.52959 3.2498 3.87471C3.25584 12.5539 3.26479 16.9132 3.27666 16.9523C3.37676 17.2826 3.72564 17.4692 4.05594 17.3692L9.49883 15.7198C13.2073 16.8373 15.082 17.396 15.1229 17.396C15.4681 17.396 15.7479 17.1162 15.7479 16.7711V3.87471C15.7479 3.52959 15.4681 3.2498 15.1229 3.2498H3.87471Z" fill="#0C0C0C"/>
</svg>
