<svg width="20" height="20" viewBox="0 0 20 20" fill="none" xmlns="http://www.w3.org/2000/svg">
<path d="M10.6235 7.08184H12.4982V8.33164H10.6235V9.37314H11.1442C12.1221 9.37314 12.9148 10.1659 12.9148 11.1437C12.9148 12.1215 12.1221 12.9143 11.1442 12.9143H10.6235V13.7475H9.37365V12.9143H7.49895V11.6645H9.37365V10.6229H8.85289C7.87506 10.6229 7.08234 9.83023 7.08234 8.8524C7.08234 7.87455 7.87506 7.08184 8.85289 7.08184H9.37365V6.24863H10.6235V7.08184ZM10.6235 10.6229V11.6645H11.1442C11.4318 11.6645 11.665 11.4313 11.665 11.1437C11.665 10.8561 11.4318 10.6229 11.1442 10.6229H10.6235ZM9.37365 9.37314V8.33164H8.85289C8.56529 8.33164 8.33215 8.56479 8.33215 8.85238C8.33215 9.14 8.56529 9.37314 8.85289 9.37314H9.37365ZM4.99938 12.9143L3.54213 12.9143C4.66865 15.4089 7.17158 17.0803 9.99856 17.0803C13.1218 17.0803 15.8495 15.0402 16.7626 12.1039L17.956 12.4751C16.8815 15.9304 13.6729 18.3301 9.99856 18.3301C6.32418 18.3301 3.11557 15.9304 2.04107 12.4751L1.78906 11.6646L4.9993 11.6645L4.99938 12.9143ZM14.9979 7.08184L16.4551 7.08201C15.3286 4.5873 12.8256 2.91582 9.99856 2.91582C6.87518 2.91582 4.14736 4.95605 3.23439 7.89254L2.04094 7.52148C3.11529 4.06596 6.324 1.66602 9.99856 1.66602C13.6731 1.66602 16.8818 4.06596 17.9562 7.52148L18.2082 8.33203L14.9977 8.33164L14.9979 7.08184Z" fill="#0C0C0C"/>
</svg>
