<svg width="18" height="18" viewBox="0 0 18 18" fill="none" xmlns="http://www.w3.org/2000/svg">
<path fill-rule="evenodd" clip-rule="evenodd" d="M10.8934 3.71885C11.3378 4.82671 11.56 5.38066 12.0129 5.71734C12.4657 6.05404 13.0602 6.10727 14.2491 6.21375L14.464 6.23299C16.4099 6.40726 17.3828 6.49439 17.5909 7.11338C17.7991 7.73235 17.0766 8.3897 15.6315 9.70438L15.1493 10.1432C14.4178 10.8087 14.052 11.1414 13.8815 11.5776C13.8497 11.6589 13.8233 11.7423 13.8024 11.8271C13.6903 12.2817 13.7975 12.7645 14.0117 13.7299L14.0783 14.0305C14.472 15.8048 14.6688 16.692 14.3252 17.0746C14.1967 17.2176 14.0298 17.3206 13.8444 17.3712C13.3482 17.5066 12.6437 16.9325 11.2348 15.7844C10.3096 15.0305 9.84703 14.6536 9.31593 14.5688C9.10702 14.5354 8.89414 14.5354 8.68523 14.5688C8.15414 14.6536 7.69155 15.0305 6.76638 15.7844C5.35743 16.9325 4.65294 17.5066 4.15675 17.3712C3.97133 17.3206 3.80443 17.2176 3.67599 17.0746C3.33232 16.692 3.52915 15.8048 3.92282 14.0305L3.9895 13.7299C4.20371 12.7645 4.31082 12.2817 4.19875 11.8271C4.17786 11.7423 4.15142 11.6589 4.11962 11.5776C3.94915 11.1414 3.58339 10.8087 2.85189 10.1432L2.36961 9.70438C0.92457 8.3897 0.20204 7.73235 0.410227 7.11338C0.618397 6.49439 1.59131 6.40726 3.53712 6.23299L3.75205 6.21375C4.94097 6.10727 5.53543 6.05404 5.98829 5.71734C6.44113 5.38066 6.66333 4.82671 7.10772 3.71885L7.14436 3.62754C7.93096 1.66653 8.32425 0.686035 9.00058 0.686035C9.67691 0.686035 10.0702 1.66653 10.8568 3.62754L10.8934 3.71885Z" fill="#2752E7"/>
</svg>
