<svg width="20" height="20" viewBox="0 0 20 20" fill="none" xmlns="http://www.w3.org/2000/svg">
<path d="M16.6364 16.1894H2.66667C2.29545 16.1894 2 15.8939 2 15.5303V3.65909C2 3.29545 2.29545 3 2.66667 3C3.03788 3 3.33333 3.29545 3.33333 3.65909V14.8712H16.6364C17.0076 14.8712 17.303 15.1667 17.303 15.5303C17.303 15.8939 17.0076 16.1894 16.6364 16.1894ZM5.29545 12.3106C5.2197 12.3106 5.14394 12.2955 5.06061 12.2652C4.89394 12.2045 4.75758 12.0758 4.68182 11.9167C4.61364 11.7576 4.61364 11.5833 4.68182 11.4242L6.01515 7.96212C6.08333 7.78788 6.22727 7.64394 6.40909 7.57576C6.58333 7.50758 6.7803 7.52273 6.95455 7.60606L11.7348 10.1061L14.7273 5.17424C14.9167 4.85606 15.3258 4.75758 15.6439 4.94697C15.7955 5.03788 15.9091 5.18182 15.947 5.35606C15.9924 5.52273 15.9621 5.69697 15.8712 5.84849L12.553 11.3106C12.3636 11.6136 11.9848 11.7121 11.6667 11.553L6.99242 9.11364L5.92424 11.8864C5.81818 12.1439 5.57576 12.3106 5.29545 12.3106Z" fill="#0C0C0C"/>
</svg>
