<svg width="156" height="77" viewBox="0 0 156 77" fill="none" xmlns="http://www.w3.org/2000/svg">
<path d="M12.5 18.0001C10.1 30.0001 3.83333 39.0001 0 42.0001V77H155.5V6.5C153.333 9.16667 148.4 14.5 146 14.5C143 14.5 131.5 25.5001 124 18.0001C116.5 10.5001 110.5 29 101.5 25.5001C92.5 22.0002 95.5 42.0001 88 42.0001C80.5 42.0001 86.5 34.5 81.5 29C76.5 23.5 78 34 71 34.5C64 35 62.5 34 63 25.5001C63.5 17.0002 61 18.0001 56.5 14.5C52 10.9999 60 42.0001 48.5 42.0001C37 42.0001 43.5 31 36 22.5C28.5 14 33.5 1.50027 29 0.500266C24.5 -0.499734 27 26.0001 21 25.5001C15 25.0001 15.5 3.00011 12.5 18.0001Z" fill="url(#paint0_linear_802_5793)"/>
<defs>
<linearGradient id="paint0_linear_802_5793" x1="78" y1="77" x2="78" y2="-2.5" gradientUnits="userSpaceOnUse">
<stop stop-color="#014CFA" stop-opacity="0"/>
<stop offset="1" stop-color="#014CFA" stop-opacity="0.5"/>
</linearGradient>
</defs>
</svg>
