<svg width="20" height="18" viewBox="0 0 20 18" fill="none" xmlns="http://www.w3.org/2000/svg">
<path fill-rule="evenodd" clip-rule="evenodd" d="M11.8934 3.71885C12.3378 4.82671 12.56 5.38066 13.0129 5.71734C13.4657 6.05404 14.0602 6.10727 15.2491 6.21375L15.464 6.23299C17.4099 6.40726 18.3828 6.49439 18.5909 7.11338C18.7991 7.73235 18.0766 8.3897 16.6315 9.70438L16.1493 10.1432C15.4178 10.8087 15.052 11.1414 14.8815 11.5776C14.8497 11.6589 14.8233 11.7423 14.8024 11.8271C14.6903 12.2817 14.7975 12.7645 15.0117 13.7299L15.0783 14.0305C15.472 15.8048 15.6688 16.692 15.3252 17.0746C15.1967 17.2176 15.0298 17.3206 14.8444 17.3712C14.3482 17.5066 13.6437 16.9325 12.2348 15.7844C11.3096 15.0305 10.847 14.6536 10.3159 14.5688C10.107 14.5354 9.89414 14.5354 9.68523 14.5688C9.15414 14.6536 8.69155 15.0305 7.76638 15.7844C6.35743 16.9325 5.65294 17.5066 5.15675 17.3712C4.97133 17.3206 4.80443 17.2176 4.67599 17.0746C4.33232 16.692 4.52915 15.8048 4.92282 14.0305L4.9895 13.7299C5.20371 12.7645 5.31082 12.2817 5.19875 11.8271C5.17786 11.7423 5.15142 11.6589 5.11962 11.5776C4.94915 11.1414 4.58339 10.8087 3.85189 10.1432L3.36961 9.70438C1.92457 8.3897 1.20204 7.73235 1.41023 7.11338C1.6184 6.49439 2.59131 6.40726 4.53712 6.23299L4.75205 6.21375C5.94097 6.10727 6.53543 6.05404 6.98829 5.71734C7.44113 5.38066 7.66333 4.82671 8.10772 3.71885L8.14436 3.62754C8.93096 1.66653 9.32425 0.686035 10.0006 0.686035C10.6769 0.686035 11.0702 1.66653 11.8568 3.62754L11.8934 3.71885V3.71885Z" stroke="#666D80"/>
</svg>
