<svg xmlns="http://www.w3.org/2000/svg" width="91" height="73" viewBox="0 0 91 73" fill="none">
  <path d="M46.4568 45.1691L58.0014 45.1172L83.0103 45.1691L74.073 60.9813L65.8232 67.921H38.4404L46.4568 45.1691Z" fill="url(#paint0_linear_382_9924)"/>
  <path d="M8.76155 64.6521L8.67075 64.6132L8.63184 64.5224V45.182L8.67075 45.0912L8.76155 45.0522L8.85235 45.0912L8.89126 45.182V64.5224L8.85235 64.6132L8.76155 64.6521Z" fill="#89A3D7"/>
  <path d="M8.86549 43.1068L8.82658 43.0679L8.80064 43.1068L8.41149 44.0018L7.30892 46.9853L6.43983 49.7482L6.03772 51.2658L5.66154 52.8224L5.20754 55.4686L5 57.7386L5.05189 58.3742L5.14269 58.7633L5.31132 59.1914L5.46697 59.4638L5.94692 60.0086L6.24526 60.2421L6.62143 60.4496L7.10137 60.6312L7.58132 60.748L8.19098 60.8388L8.93035 60.8647L9.48812 60.8258L10.3832 60.6442L10.7204 60.5145L11.1614 60.255L11.5117 59.9697L11.797 59.6584L12.0176 59.2952L12.3289 58.5558L12.4456 57.985L12.4975 57.4532L12.4845 55.9874L12.3029 54.5087L12.0694 53.3283L11.7711 52.0441L11.0577 49.4887L10.2794 47.0631L8.86549 43.1068Z" fill="#97BCEB"/>
  <path d="M82.3615 40.2231L82.3226 40.2361L82.0762 40.8069L81.6222 41.9873L81.0774 43.5957L80.5455 45.4896L80.3121 46.4884L79.9748 48.5249L79.897 49.4848V49.9517L79.9489 50.2631L80.0786 50.5744L80.2861 50.9116L80.4677 51.1062L80.7271 51.2878L81.0514 51.4434L81.3887 51.5602L81.8427 51.638L82.4134 51.664L82.8804 51.6251L83.2566 51.5472L83.5679 51.4305L84.0738 51.0932L84.2554 50.8857L84.4629 50.5354L84.5926 50.1722L84.7094 49.4718L84.7224 48.927L84.6705 48.2006L84.3462 46.4105L84.0997 45.4377L83.529 43.5309L82.3615 40.2231Z" fill="#97BCEB"/>
  <path d="M82.2966 54.1027L82.2188 54.0119L82.2447 41.5074L82.2966 41.4814L82.3614 41.5074L82.3874 41.5593V54.0119L82.3614 54.0767L82.2966 54.1027Z" fill="#97BCEB"/>
  <path d="M81.1293 64.6649L81.0645 64.6001V57.5695L81.1293 57.4917L81.1942 57.5695V64.6001L81.1293 64.6649Z" fill="#89A3D7"/>
  <path d="M83.3476 59.1652L83.3087 59.5673L83.205 59.9435L83.0363 60.2807L82.8158 60.592L82.5564 60.8644L82.2451 61.0849L81.8948 61.2536L81.5316 61.3444L81.1166 61.3833L80.7144 61.3444L80.3383 61.2536L80.001 61.0849L79.6767 60.8644L79.4173 60.592L79.1968 60.2807L79.0282 59.9435L78.9244 59.5673L78.8984 59.1652L78.9244 58.7501L79.0282 58.3869L79.1968 58.0367L79.4173 57.7253L79.6767 57.4659L80.001 57.2324L80.3383 57.0768L80.7144 56.973L81.1166 56.9341L81.5316 56.973L81.8948 57.0768L82.2451 57.2324L82.5564 57.4659L82.8158 57.7253L83.0363 58.0367L83.205 58.3869L83.3087 58.7501L83.3476 59.1652Z" fill="#97BCEB"/>
  <path d="M56.0298 5.86563L55.9909 6.48826L55.8742 7.059L55.6796 7.61677L55.4201 8.13563L55.0959 8.61557L54.7067 9.0566L54.2787 9.43278L53.7987 9.75706L53.2799 10.0165L52.7221 10.2111L52.1384 10.3278L51.5287 10.3667L50.9061 10.3278L50.3224 10.2111L49.7646 10.0165L49.2457 9.75706L48.7658 9.43278L48.3377 9.0566L47.9486 8.61557L47.6373 8.13563L47.3649 7.61677L47.1833 7.059L47.0536 6.48826L47.0146 5.86563L47.0536 5.243L47.1833 4.65928L47.3649 4.11448L47.6373 3.58265L47.9486 3.10271L48.3377 2.67465L48.7658 2.29848L49.2457 1.97419L49.7646 1.71476L50.3224 1.52019L50.9061 1.40345L51.5287 1.35156L52.1384 1.40345L52.7221 1.52019L53.2799 1.71476L53.7987 1.97419L54.2787 2.29848L54.7067 2.67465L55.0959 3.10271L55.4201 3.58265L55.6796 4.11448L55.8742 4.65928L55.9909 5.243L56.0298 5.86563Z" fill="#FFDB80"/>
  <path d="M54.0839 8.3172H49.6088L49.4661 7.87617L49.2845 7.46108L49.0251 7.08491L48.7267 6.74765L48.3765 6.46228L47.9873 6.2288L47.5593 6.06017L47.1182 5.95639L46.6253 5.91748L46.1454 5.95639L45.6914 6.06017L45.2763 6.2288L44.8742 6.46228L44.5369 6.74765L44.2256 7.08491L43.9792 7.46108L43.7846 7.87617L43.6549 8.3172H42.4874L42.0205 8.36908L41.6054 8.47286L41.2033 8.66743L40.853 8.91388L40.5547 9.21223L40.3082 9.57543L40.1137 9.96457L39.9969 10.3797L39.958 10.8466L39.9969 11.3006L40.1137 11.7287L40.3082 12.1178L40.5547 12.4681L40.853 12.7664L41.2033 13.0258L41.5924 13.2074L42.0205 13.3242L42.4874 13.3631H54.0839L54.5509 13.3242L54.966 13.2074L55.3551 13.0258L55.7183 12.7664L56.0167 12.4681L56.2631 12.1178L56.4447 11.7287L56.5615 11.3006L56.6133 10.8466L56.5615 10.3797L56.4447 9.96457L56.2631 9.57543L56.0167 9.21223L55.7183 8.91388L55.3551 8.66743L54.966 8.47286L54.5509 8.36908L54.0839 8.3172Z" fill="#E0E5FA"/>
  <path d="M67.0814 65.7939L28.7638 65.7679L27.5834 65.5734L27.0256 65.4177L26.2862 65.1323L25.6117 64.7691L24.9631 64.354L24.3664 63.8611L23.8346 63.3293L23.3417 62.7326L22.9266 62.084L22.5634 61.3965L22.278 60.6701L22.1224 60.1124L21.9278 58.932L21.9019 34.6105L21.9927 33.3912L22.278 32.2497L22.5634 31.5103L22.9266 30.8358L23.3417 30.1872L23.8346 29.5906L24.3664 29.0587L24.9631 28.5658L25.6117 28.1507L26.2992 27.7875L27.0256 27.5021L27.5834 27.3335L28.7638 27.1519L67.0814 27.126L67.7041 27.1519L68.8844 27.3465L69.4422 27.5021L70.1816 27.7875L70.8561 28.1507L71.5047 28.5658L72.1014 29.0587L72.6332 29.5906L73.1261 30.1872L73.5412 30.8358L73.9044 31.5103L74.1898 32.2497L74.3584 32.8075L74.54 33.9879L74.5659 58.3093L74.4751 59.5287L74.1898 60.6701L73.9044 61.3965L73.5542 62.084L73.1261 62.7326L72.6332 63.3293L72.1014 63.8611L71.5047 64.354L70.8561 64.7691L70.1816 65.1323L69.4422 65.4177L68.3007 65.7031L67.0814 65.7939Z" fill="#9EB1DD"/>
  <path d="M67.0684 65.794H28.1541L27.5055 65.768L26.8829 65.6643L26.2992 65.5216L25.7155 65.3011L25.1707 65.0416L24.6518 64.7303L24.1719 64.3671L23.7308 63.965L23.3287 63.511L22.9655 63.044L22.6542 62.5252L22.3948 61.9674L22.1743 61.3967L22.0316 60.8129L21.9278 60.1903L21.9019 59.5417V34.5198L21.9278 33.8712L22.0316 33.2486L22.1743 32.6649L22.3948 32.0942L22.6542 31.5364L22.9655 31.0175L23.3287 30.5505L23.7308 30.0965L24.1719 29.6944L24.6518 29.3312L25.1707 29.0199L25.7155 28.7605L26.2992 28.54L26.8829 28.3973L27.5055 28.2935L28.1541 28.2676H67.0684L67.717 28.2935L68.3267 28.3973L68.9234 28.54L69.4941 28.7605L70.0519 29.0199L70.5578 29.3312L71.0377 29.6944L71.4917 30.0965L71.8938 30.5505L72.257 31.0175L72.5683 31.5364L72.8278 32.0942L73.0353 32.6649L73.191 33.2486L73.2818 33.8712L73.3207 34.5198V59.5417L73.2818 60.1903L73.191 60.8129L73.0353 61.3967L72.8278 61.9674L72.5683 62.5252L72.257 63.044L71.8938 63.511L71.4917 63.965L71.0377 64.3671L70.5707 64.7303L70.0519 65.0416L69.4941 65.3011L68.9234 65.5216L68.3396 65.6643L67.717 65.768L67.0684 65.794Z" fill="url(#paint1_linear_382_9924)"/>
  <path d="M21.9019 38.1128H73.3207V43.0419H21.9019V38.1128Z" fill="#9EB1DD"/>
  <path d="M27.5315 51.512H25.9231L25.6896 51.4861L25.482 51.3953L25.3004 51.2526L25.1578 51.071L25.067 50.8634L25.041 50.6299V47.7373L25.067 47.4909L25.1578 47.2833L25.3004 47.1017L25.482 46.959L25.6896 46.8682L25.9231 46.8423H27.5315L27.765 46.8682L27.9855 46.959L28.1542 47.1017L28.2969 47.2833L28.3876 47.4909L28.4266 47.7373V50.6299L28.3876 50.8764L28.2969 51.071L28.1542 51.2526L27.9855 51.3953L27.778 51.4861L27.5315 51.512Z" fill="url(#paint2_linear_382_9924)"/>
  <path d="M33.1226 51.512H31.5142L31.2807 51.4861L31.0602 51.3953L30.8786 51.2526L30.7489 51.071L30.6581 50.8634L30.6191 50.6299V47.7373L30.6581 47.4909L30.7489 47.2833L30.8786 47.1017L31.0602 46.959L31.2807 46.8682L31.5142 46.8423H33.1226L33.3561 46.8682L33.5637 46.959L33.7453 47.1017L33.8879 47.2833L33.9787 47.4909L34.0047 47.7373V50.6299L33.9658 50.8764L33.8879 51.071L33.7453 51.2526L33.5637 51.3953L33.3561 51.4861L33.1226 51.512Z" fill="url(#paint3_linear_382_9924)"/>
  <path d="M38.7 51.512H37.0915L36.858 51.4861L36.6505 51.3953L36.4689 51.2526L36.3262 51.071L36.2354 50.8634L36.2095 50.6299V47.7373L36.2354 47.4909L36.3262 47.2833L36.4689 47.1017L36.6505 46.959L36.858 46.8682L37.0915 46.8423H38.7L38.9335 46.8682L39.154 46.959L39.3356 47.1017L39.4653 47.2833L39.5561 47.4909L39.595 47.7373V50.6299L39.5561 50.8764L39.4653 51.071L39.3226 51.2526L39.154 51.3953L38.9464 51.4861L38.7 51.512Z" fill="url(#paint4_linear_382_9924)"/>
  <path d="M27.5315 51.1747H25.9231L25.6896 51.1488L25.482 51.058L25.3004 50.9153L25.1578 50.7337L25.067 50.5262L25.041 50.2927V47.7373L25.067 47.4909L25.1578 47.2833L25.3004 47.1017L25.482 46.959L25.6896 46.8682L25.9231 46.8423H27.5315L27.765 46.8682L27.9855 46.959L28.1542 47.1017L28.2969 47.2833L28.3876 47.4909L28.4266 47.7373V50.2927L28.3876 50.5391L28.2969 50.7337L28.1542 50.9153L27.9855 51.058L27.778 51.1488L27.5315 51.1747Z" fill="white"/>
  <path d="M33.1226 51.1747H31.5142L31.2807 51.1488L31.0602 51.058L30.8786 50.9153L30.7489 50.7337L30.6581 50.5262L30.6191 50.2927V47.7373L30.6581 47.4909L30.7489 47.2833L30.8786 47.1017L31.0602 46.959L31.2807 46.8682L31.5142 46.8423H33.1226L33.3561 46.8682L33.5637 46.959L33.7453 47.1017L33.8879 47.2833L33.9787 47.4909L34.0047 47.7373V50.2927L33.9658 50.5391L33.8879 50.7337L33.7453 50.9153L33.5637 51.058L33.3561 51.1488L33.1226 51.1747Z" fill="white"/>
  <path d="M38.7 51.1747H37.1045L36.858 51.1488L36.6505 51.058L36.4689 50.9153L36.3262 50.7337L36.2354 50.5262L36.2095 50.2927V47.7373L36.2354 47.4909L36.3262 47.2833L36.4689 47.1017L36.6505 46.959L36.858 46.8682L37.1045 46.8423H38.7L38.9464 46.8682L39.154 46.959L39.3356 47.1017L39.4653 47.2833L39.5561 47.4909L39.595 47.7373V50.2927L39.5561 50.5391L39.4653 50.7337L39.3356 50.9153L39.154 51.058L38.9464 51.1488L38.7 51.1747Z" fill="white"/>
  <path d="M67.6263 51.6548H57.3529L57.0935 51.6807L56.8859 51.7715L56.6784 51.9142L56.5227 52.0958L56.406 52.3163L56.3411 52.5758L55.4331 59.4117L55.4461 59.8268L55.5109 60.0214L55.6666 60.2678L55.8741 60.4754L56.2244 60.631L66.7183 60.644L66.9647 60.6181L67.1852 60.5273L67.3798 60.3846L67.5355 60.19L67.6522 59.9825L67.7171 59.7101L68.638 52.6666L68.5472 52.2774L68.3916 52.018L68.184 51.8234L68.0154 51.7326L67.6263 51.6548Z" fill="url(#paint5_linear_382_9924)"/>
  <path d="M67.6263 51.6548H57.3529L57.0935 51.6807L56.8729 51.7586L56.6784 51.9012L56.5227 52.0699L56.406 52.2774L56.3411 52.5239L55.4331 58.9318L55.4461 59.3209L55.5109 59.5025L55.6666 59.736L55.8741 59.9306L56.2244 60.0733L66.7183 60.0992L66.9647 60.0603L67.1852 59.9825L67.3798 59.8398L67.5355 59.6711L67.6522 59.4636L67.7171 59.2171L68.638 52.6017L68.5472 52.2385L68.3916 52.005L68.0154 51.7196L67.6263 51.6548Z" fill="white"/>
  <path d="M58.8838 60.0992H59.7788L60.9073 51.6548H60.0123L58.8838 60.0992Z" fill="url(#paint6_linear_382_9924)"/>
  <path d="M63.1772 60.0992H64.0852L65.2138 51.6548H64.3187L63.1772 60.0992Z" fill="url(#paint7_linear_382_9924)"/>
  <path d="M61.309 69.4646L22.9913 69.4386L21.8109 69.244L21.2531 69.0754L20.5137 68.79L19.8392 68.4398L19.1907 68.0117L18.594 67.5318L18.0492 66.987L17.5692 66.3903L17.1412 65.7547L16.7909 65.0672L16.5056 64.3408L16.3369 63.7701L16.1553 62.5897L16.1294 38.2812L16.2202 37.0619L16.5056 35.9074L16.7909 35.181L17.1412 34.4935L17.5692 33.8579L18.0492 33.2612L18.594 32.7164L19.1907 32.2365L19.8392 31.8084L20.5137 31.4582L21.2531 31.1728L22.3946 30.8875L23.6139 30.7837L61.9316 30.8096L63.112 31.0042L63.6698 31.1728L64.3962 31.4582L65.0837 31.8084L65.7322 32.2365L66.3289 32.7164L66.8607 33.2612L67.3537 33.8579L67.7687 34.4935L68.1319 35.181L68.4173 35.9074L68.573 36.4782L68.7675 37.6586L68.7935 61.9671L68.6897 63.1864L68.4173 64.3408L68.1319 65.0672L67.7687 65.7547L67.3537 66.3903L66.8607 66.987L66.3289 67.5318L65.7322 68.0117L65.0837 68.4398L64.3962 68.79L63.6698 69.0754L62.5283 69.3608L61.309 69.4646Z" fill="#9EB1DD"/>
  <path d="M61.283 69.4647H22.3816L21.7331 69.4258L21.1104 69.335L20.5137 69.1793L19.943 68.9718L19.3982 68.6994L18.8793 68.388L18.3994 68.0378L17.9584 67.6227L17.5563 67.1817L17.1931 66.7018L16.8817 66.1829L16.6093 65.6381L16.4018 65.0674L16.2461 64.4707L16.1553 63.848L16.1294 63.1995V38.1905L16.1553 37.5419L16.2461 36.9193L16.4018 36.3226L16.6093 35.7519L16.8817 35.2071L17.1931 34.6882L17.5563 34.2083L17.9584 33.7672L18.3994 33.3651L18.8793 33.0019L19.3982 32.6906L19.943 32.4182L20.5137 32.2107L21.1104 32.055L21.7331 31.9642L22.3816 31.9253H61.283L61.9316 31.9642L62.5542 32.055L63.1509 32.2107L63.7216 32.4182L64.2794 32.6906L64.7853 33.0019L65.2652 33.3651L65.7192 33.7672L66.1214 34.2083L66.4716 34.6882L66.7829 35.2071L67.0553 35.7519L67.2629 36.3226L67.4185 36.9193L67.5093 37.5419L67.5482 38.1905V63.1995L67.5093 63.848L67.4185 64.4707L67.2629 65.0674L67.0553 65.6381L66.7829 66.1959L66.4716 66.7018L66.1214 67.1817L65.7192 67.6227L65.2652 68.0378L64.7853 68.388L64.2794 68.6994L63.7216 68.9718L63.1509 69.1793L62.5542 69.335L61.9316 69.4258L61.283 69.4647Z" fill="url(#paint8_linear_382_9924)"/>
  <path d="M16.1294 41.7832H67.5482V46.7124H16.1294V41.7832Z" fill="#9EB1DD"/>
  <path d="M21.7591 55.1829H20.1506L19.9171 55.157L19.7096 55.0662L19.528 54.9235L19.3853 54.7419L19.2945 54.5343L19.2686 54.3008V51.3952L19.2945 51.1618L19.3853 50.9542L19.528 50.7726L19.7096 50.6299L19.9171 50.5391L20.1506 50.5132H21.7591L21.9926 50.5391L22.2001 50.6299L22.3817 50.7726L22.5244 50.9542L22.6152 51.1618L22.6411 51.3952V54.3008L22.6152 54.5343L22.5244 54.7419L22.3817 54.9235L22.2001 55.0662L21.9926 55.157L21.7591 55.1829Z" fill="url(#paint9_linear_382_9924)"/>
  <path d="M27.3367 55.1829H25.7412L25.4948 55.157L25.2872 55.0662L25.1056 54.9235L24.9629 54.7419L24.8851 54.5343L24.8462 54.3008V51.3952L24.8851 51.1618L24.9629 50.9542L25.1056 50.7726L25.2872 50.6299L25.4948 50.5391L25.7412 50.5132H27.3367L27.5832 50.5391L27.7907 50.6299L27.9723 50.7726L28.102 50.9542L28.1928 51.1618L28.2317 51.3952V54.3008L28.1928 54.5343L28.115 54.7419L27.9723 54.9235L27.7907 55.0662L27.5832 55.144L27.3367 55.1829Z" fill="url(#paint10_linear_382_9924)"/>
  <path d="M32.9275 55.1829H31.3191L31.0856 55.157L30.878 55.0662L30.6964 54.9235L30.5538 54.7419L30.463 54.5343L30.437 54.3008V51.3952L30.463 51.1618L30.5538 50.9542L30.6964 50.7726L30.878 50.6299L31.0856 50.5391L31.3191 50.5132H32.9275L33.161 50.5391L33.3686 50.6299L33.5502 50.7726L33.6928 50.9542L33.7836 51.1618L33.8096 51.3952V54.3008L33.7836 54.5343L33.6928 54.7419L33.5502 54.9235L33.3686 55.0662L33.161 55.144L32.9275 55.1829Z" fill="url(#paint11_linear_382_9924)"/>
  <path d="M21.7591 54.8456H20.1506L19.9171 54.8197L19.7096 54.7289L19.528 54.5862L19.3853 54.4046L19.2945 54.1971L19.2686 53.9636V51.3952L19.2945 51.1618L19.3853 50.9542L19.528 50.7726L19.7096 50.6299L19.9171 50.5391L20.1506 50.5132H21.7591L21.9926 50.5391L22.2001 50.6299L22.3817 50.7726L22.5244 50.9542L22.6152 51.1618L22.6411 51.3952V53.9636L22.6152 54.1971L22.5244 54.4046L22.3817 54.5862L22.2001 54.7289L21.9926 54.8197L21.7591 54.8456Z" fill="white"/>
  <path d="M27.3367 54.8456H25.7412L25.4948 54.8197L25.2872 54.7289L25.1056 54.5862L24.9759 54.4046L24.8851 54.1971L24.8462 53.9636V51.3952L24.8851 51.1618L24.9759 50.9542L25.1056 50.7726L25.2872 50.6299L25.4948 50.5391L25.7412 50.5132H27.3367L27.5832 50.5391L27.7907 50.6299L27.9723 50.7726L28.115 50.9542L28.1928 51.1618L28.2317 51.3952V53.9636L28.1928 54.1971L28.115 54.4046L27.9723 54.5862L27.7907 54.7289L27.5832 54.8067L27.3367 54.8456Z" fill="white"/>
  <path d="M32.9275 54.8456H31.3191L31.0856 54.8197L30.878 54.7289L30.6964 54.5862L30.5538 54.4046L30.463 54.1971L30.437 53.9636V51.3952L30.463 51.1618L30.5538 50.9542L30.6964 50.7726L30.878 50.6299L31.0856 50.5391L31.3191 50.5132H32.9275L33.161 50.5391L33.3686 50.6299L33.5502 50.7726L33.6928 50.9542L33.7836 51.1618L33.8096 51.3952V53.9636L33.7836 54.1971L33.6928 54.4046L33.5502 54.5862L33.3686 54.7289L33.161 54.8197L32.9275 54.8456Z" fill="white"/>
  <path d="M61.8536 55.3125H51.5672L51.3208 55.3514L51.1003 55.4292L50.9057 55.5849L50.75 55.7665L50.6333 55.987L50.5684 56.2464L49.6475 63.2899L49.7383 63.6791L49.8939 63.9385L50.1015 64.1331L50.2701 64.2369L50.6592 64.3147H60.9326L61.1791 64.2758L61.3996 64.1979L61.6071 64.0423L61.7628 63.8607L61.8795 63.6402L61.9444 63.3807L62.8654 56.3372L62.7746 55.9481L62.6189 55.6887L62.4114 55.4941L62.2427 55.3903L61.8536 55.3125Z" fill="url(#paint12_linear_382_9924)"/>
  <path d="M61.8536 55.3125H51.5672L51.3208 55.3514L51.1003 55.4292L50.9057 55.559L50.75 55.7406L50.6333 55.9481L50.5684 56.1946L49.6475 62.797L49.7383 63.1732L49.8939 63.4067L50.2701 63.6791L50.6592 63.7569H60.9326L61.1791 63.731L61.3996 63.6402L61.6071 63.5105L61.7628 63.3289L61.8795 63.1213L61.9444 62.8878L62.8654 56.2724L62.7746 55.9092L62.6189 55.6627L62.4114 55.4811L62.2427 55.3903L61.8536 55.3125Z" fill="white"/>
  <path d="M53.0981 63.7569H53.9932L55.1347 55.3125H54.2396L53.0981 63.7569Z" fill="url(#paint13_linear_382_9924)"/>
  <path d="M57.4048 63.7569H58.2998L59.4413 55.3125H58.5463L57.4048 63.7569Z" fill="url(#paint14_linear_382_9924)"/>
  <path d="M30.8261 39.1244L30.7224 38.9169L30.4759 38.7612H30.2813L30.0738 38.8131L29.6068 39.1633L29.4641 38.9558L29.3993 39.1633L29.3604 39.5784L29.3993 40.3697L29.4641 40.7329L29.529 40.8756L29.6457 40.9664L30.1386 41.1739L30.5278 41.1869L30.878 41.0831L31.0207 40.9923L31.1245 40.8237L31.1634 40.6421L31.1504 40.1621L30.8261 39.1244Z" fill="url(#paint15_linear_382_9924)"/>
  <path d="M29.3736 39.9155L29.4125 40.2787L29.4903 40.5122L29.6071 40.7327L29.8146 40.9273L29.9703 41.0181L30.4762 41.1089L30.6837 41.083L30.8653 40.9922L31.008 40.8495L31.0988 40.616L31.1377 40.3306L31.0858 39.9285L31.1766 40.2528L31.2285 40.7587L31.0988 41.0959L30.9821 41.2256L30.7875 41.3164L30.4891 41.3943H30.1908L29.9573 41.3294L29.7757 41.2127L29.4903 40.8624L29.4125 40.629L29.3477 40.2787L29.3736 39.9155Z" fill="white"/>
  <path d="M28.9323 27.8521L28.7896 28.0077L28.6599 28.332L28.5172 28.8638L28.3745 29.681L27.7778 30.2388L25.9488 31.6267L25.1187 32.3791L24.8852 32.6515L24.5998 33.1444L24.522 33.3909V33.6373L24.5868 33.8708L24.7814 34.247L25.5727 35.2847L27.1941 37.0488L29.3344 39.1632L30.9039 39.0724L27.7648 33.8189L29.0879 33.1185L31.8508 31.3673L31.9157 31.2635L32.0065 30.9393L32.1492 30.0702L32.3438 27.891L28.9323 27.8521Z" fill="url(#paint16_linear_382_9924)"/>
  <path d="M32.6812 39.111L32.798 38.9035L33.0315 38.7478L33.226 38.7349L33.4076 38.7867L33.8746 39.15L34.0043 38.9424L34.0692 39.15L34.1081 39.565L34.0692 40.3563L34.0043 40.7195L33.9395 40.8622L33.8357 40.966L33.3428 41.1605L32.9796 41.1735L32.6423 41.0827L32.4996 40.9789L32.3569 40.6287L32.3699 40.1488L32.6812 39.111Z" fill="url(#paint17_linear_382_9924)"/>
  <path d="M34.0952 39.9028L34.0563 40.266L33.9915 40.4995L33.8617 40.72L33.6672 40.9146L33.5115 41.0054L33.0316 41.0962L32.824 41.0703L32.6554 40.9795L32.5257 40.8368L32.4219 40.6033L32.396 40.3179L32.4349 39.9028L32.3441 40.2271L32.3052 40.746L32.4219 41.0832L32.5387 41.2129L32.7332 41.3167L33.0186 41.3816H33.304L33.5245 41.3167L33.7061 41.2L33.9785 40.8498L34.0563 40.6163L34.1212 40.2531L34.0952 39.9028Z" fill="white"/>
  <path d="M34.5746 27.8521L34.7043 28.0077L34.847 28.332L34.9897 28.8638L35.1323 29.681L35.729 30.2388L37.558 31.6267L38.3882 32.3791L38.6217 32.6515L38.907 33.1444L38.9849 33.3909V33.6373L38.92 33.8708L38.7125 34.247L37.9212 35.2847L36.2998 37.0618L34.1335 39.1761L32.564 39.0853L35.742 33.8189L34.4189 33.1185L31.656 31.3673L31.5911 31.2635L31.5003 30.9393L31.3577 30.0702L31.1631 27.891L34.5746 27.8521Z" fill="url(#paint18_linear_382_9924)"/>
  <path d="M30.7873 19.7059L30.1517 19.7448L29.2826 19.9005L28.8546 20.0561L28.3616 20.3675L28.1671 20.575L27.9466 20.9641L27.752 21.4441L27.4666 22.4559L27.2461 23.6363L28.7508 23.5584L28.2449 29.7199L35.1846 29.668L34.7695 23.312L36.1445 23.0785L36.1575 22.4818L36.1315 22.0537L36.0407 21.6127L35.8851 21.1328L35.7424 20.8344L35.3143 20.2767L35.029 20.0561L34.6787 19.8616L34.2507 19.7189L33.4983 19.667L32.6552 19.7059L32.5644 20.0172L32.3309 20.3934L32.0196 20.6269L31.6564 20.6788L31.371 20.6139L31.1764 20.4972L31.0208 20.3415L30.8392 19.9913L30.7873 19.7059Z" fill="url(#paint19_linear_382_9924)"/>
  <path d="M30.9952 18.5774L30.5801 20.4323L30.632 20.601L31.1508 20.7955L31.7734 20.8734L32.1107 20.8345L32.422 20.7307L32.863 20.4972L32.9409 20.3934V20.2767L32.2664 18.331L32.0977 18.2661L31.1378 18.4347L31.047 18.4866L30.9952 18.5774Z" fill="url(#paint20_linear_382_9924)"/>
  <path d="M33.3945 17.8382L33.4593 17.6307L33.4464 17.4491L33.3167 17.4101L33.1999 17.488L33.1869 16.7745L33.1221 16.2038L33.0053 15.9833L32.8367 15.7887L32.5513 15.6071L32.0455 15.4644L31.6823 15.4385L31.2931 15.4774L31.0077 15.5682L30.7743 15.6979L30.4889 15.9962L30.3721 16.2427L30.3203 17.488L30.1386 17.4231L30.0738 17.4491L30.0479 17.5269L30.0868 17.7474L30.2035 18.0328L30.2424 18.4868L30.3332 18.6035L30.4629 18.6165L30.5797 18.9537L30.7743 19.2521L31.0207 19.5115L31.2672 19.7061L31.5396 19.8488L31.7731 19.8877L32.0065 19.8488L32.2789 19.7061L32.5254 19.5115L32.7459 19.2521L32.9275 18.9537L33.0572 18.6165L33.1869 18.6035L33.2518 18.5646L33.3167 18.0328L33.3945 17.8382Z" fill="url(#paint21_linear_382_9924)"/>
  <path d="M32.4732 15.205L32.2657 14.8807L31.9543 14.6991L31.7338 14.6602L31.4355 14.6861L31.0593 14.7899L30.8258 14.9066L30.3718 15.2179L30.0475 15.2828L29.7622 15.4774L29.5935 15.8016L29.5806 16.0092L29.6325 16.2038L29.7362 16.4372L30.0735 16.8653L30.1124 16.9691L30.0994 17.3193L30.2421 17.6695L30.294 18.0198L30.4107 17.5528L30.4497 17.1507L30.3848 16.7356L30.4237 16.6837L30.8258 16.6059L31.4485 16.6318L32.0192 16.541L32.3954 16.3594L32.5251 16.1648L32.6029 16.4891L32.7586 16.8264L33.0569 17.0988L33.1088 17.2285L33.1996 17.9808L33.2645 17.475L33.485 16.8264L33.5369 16.554L33.5239 16.0351L33.3682 15.7887L33.2255 15.3866L33.1347 15.2698L32.9921 15.192L32.7975 15.166L32.4732 15.205Z" fill="url(#paint22_linear_382_9924)"/>
  <path d="M25.495 29.7069L25.4042 30.1999L24.8984 30.8873L24.8335 31.1727L24.9762 31.5359L25.067 31.6527L25.1318 31.6786L25.2226 31.5748L25.3524 31.6527L25.4172 31.6008L25.508 31.6786L25.6507 31.5489L25.7804 31.6267L25.8842 31.4711L25.975 31.03L25.988 31.3673L26.0269 31.4192L26.0788 31.4322L26.2214 31.2246L26.2863 31.03L26.3382 30.7576L26.2993 30.2258L26.3512 29.7848L26.2604 29.681L26.1306 29.6421L25.495 29.7069Z" fill="url(#paint23_linear_382_9924)"/>
  <path d="M28.5694 20.2119L28.8029 20.8735L28.9197 21.3534L28.9975 21.8723L29.0234 22.43L28.9845 22.8192L28.8937 23.1824L28.751 23.5585L27.7263 25.7896L27.2204 27.0998L26.481 30.148L25.2617 30.161L25.5082 28.1375L25.8065 26.4642L26.2605 24.7779L26.7145 23.351L27.2593 21.9371L27.5706 21.3015L27.882 20.8086L28.1284 20.5103L28.3489 20.3287L28.5694 20.2119Z" fill="url(#paint24_linear_382_9924)"/>
  <path d="M38.1552 29.7069L38.246 30.1999L38.7648 30.8873L38.8167 31.1727L38.687 31.5359L38.5962 31.6527L38.5313 31.6786L38.4405 31.5748L38.3108 31.6527L38.233 31.6008L38.1552 31.6786L38.0125 31.5489L37.8698 31.6267L37.766 31.4711L37.6752 31.03L37.6622 31.3673L37.6363 31.4192L37.5714 31.4322L37.4288 31.2246L37.3639 31.03L37.325 30.7576L37.3639 30.2258L37.312 29.7848L37.4028 29.681L37.5325 29.6421L38.1552 29.7069Z" fill="url(#paint25_linear_382_9924)"/>
  <path d="M35.1587 20.147L34.8733 20.9382L34.6917 21.7425L34.6528 22.1965L34.7047 22.9618L34.8993 23.5585L35.924 25.7896L36.4299 27.0997L37.1823 30.148L38.4016 30.1609L38.1551 28.1374L37.9606 27.0089L37.7141 25.9582L37.3898 24.7778L36.9488 23.3639L36.4169 21.95L36.1186 21.3014L35.8203 20.7955L35.5868 20.4842L35.3663 20.2767L35.1587 20.147Z" fill="url(#paint26_linear_382_9924)"/>
  <defs>
    <linearGradient id="paint0_linear_382_9924" x1="76.5464" y1="45.5845" x2="60.7254" y2="67.921" gradientUnits="userSpaceOnUse">
      <stop stop-color="#8090A5" stop-opacity="0"/>
      <stop offset="1" stop-color="#8090A5"/>
    </linearGradient>
    <linearGradient id="paint1_linear_382_9924" x1="21309" y1="21906.9" x2="21309" y2="11049.3" gradientUnits="userSpaceOnUse">
      <stop stop-color="#B6CADC"/>
      <stop offset="0.8851" stop-color="#DFE8F9"/>
    </linearGradient>
    <linearGradient id="paint2_linear_382_9924" x1="927.411" y1="2234.34" x2="807.421" y2="2147.35" gradientUnits="userSpaceOnUse">
      <stop offset="0.15" stop-color="#AFC5D8"/>
      <stop offset="1" stop-color="#DFE8F9"/>
    </linearGradient>
    <linearGradient id="paint3_linear_382_9924" x1="1078.76" y1="2234.34" x2="958.766" y2="2147.35" gradientUnits="userSpaceOnUse">
      <stop offset="0.15" stop-color="#AFC5D8"/>
      <stop offset="1" stop-color="#DFE8F9"/>
    </linearGradient>
    <linearGradient id="paint4_linear_382_9924" x1="1230.1" y1="2234.34" x2="1110.11" y2="2147.35" gradientUnits="userSpaceOnUse">
      <stop offset="0.15" stop-color="#AFC5D8"/>
      <stop offset="1" stop-color="#DFE8F9"/>
    </linearGradient>
    <linearGradient id="paint5_linear_382_9924" x1="6990.14" y1="4935.83" x2="6990.14" y2="4312.12" gradientUnits="userSpaceOnUse">
      <stop offset="0.15" stop-color="#AFC5D8"/>
      <stop offset="1" stop-color="#DFE8F9"/>
    </linearGradient>
    <linearGradient id="paint6_linear_382_9924" x1="1115.38" y1="4394.18" x2="1044.39" y2="4384.36" gradientUnits="userSpaceOnUse">
      <stop offset="0.15" stop-color="#AFC5D8"/>
      <stop offset="1" stop-color="#DFE8F9"/>
    </linearGradient>
    <linearGradient id="paint7_linear_382_9924" x1="1194.01" y1="4394.18" x2="1122.59" y2="4384.23" gradientUnits="userSpaceOnUse">
      <stop offset="0.15" stop-color="#AFC5D8"/>
      <stop offset="1" stop-color="#DFE8F9"/>
    </linearGradient>
    <linearGradient id="paint8_linear_382_9924" x1="19013.9" y1="22978.8" x2="19013.9" y2="12117.4" gradientUnits="userSpaceOnUse">
      <stop stop-color="#B6CADC"/>
      <stop offset="0.8851" stop-color="#DFE8F9"/>
    </linearGradient>
    <linearGradient id="paint9_linear_382_9924" x1="768.025" y1="2369.95" x2="648.179" y2="2283.4" gradientUnits="userSpaceOnUse">
      <stop offset="0.15" stop-color="#AFC5D8"/>
      <stop offset="1" stop-color="#DFE8F9"/>
    </linearGradient>
    <linearGradient id="paint10_linear_382_9924" x1="922.249" y1="2369.95" x2="802.259" y2="2282.96" gradientUnits="userSpaceOnUse">
      <stop offset="0.15" stop-color="#AFC5D8"/>
      <stop offset="1" stop-color="#DFE8F9"/>
    </linearGradient>
    <linearGradient id="paint11_linear_382_9924" x1="1069.59" y1="2369.95" x2="949.748" y2="2283.4" gradientUnits="userSpaceOnUse">
      <stop offset="0.15" stop-color="#AFC5D8"/>
      <stop offset="1" stop-color="#DFE8F9"/>
    </linearGradient>
    <linearGradient id="paint12_linear_382_9924" x1="6402.66" y1="5200.89" x2="6402.66" y2="4576.28" gradientUnits="userSpaceOnUse">
      <stop offset="0.15" stop-color="#AFC5D8"/>
      <stop offset="1" stop-color="#DFE8F9"/>
    </linearGradient>
    <linearGradient id="paint13_linear_382_9924" x1="1025.69" y1="4636.43" x2="954.268" y2="4626.49" gradientUnits="userSpaceOnUse">
      <stop offset="0.15" stop-color="#AFC5D8"/>
      <stop offset="1" stop-color="#DFE8F9"/>
    </linearGradient>
    <linearGradient id="paint14_linear_382_9924" x1="1097.57" y1="4636.43" x2="1026.14" y2="4626.49" gradientUnits="userSpaceOnUse">
      <stop offset="0.15" stop-color="#AFC5D8"/>
      <stop offset="1" stop-color="#DFE8F9"/>
    </linearGradient>
    <linearGradient id="paint15_linear_382_9924" x1="-5841.54" y1="992.943" x2="-5841.54" y2="947.243" gradientUnits="userSpaceOnUse">
      <stop stop-color="#4673BC"/>
      <stop offset="0.652" stop-color="#6A94E0"/>
    </linearGradient>
    <linearGradient id="paint16_linear_382_9924" x1="2105.98" y1="4300.15" x2="2105.98" y2="3314.05" gradientUnits="userSpaceOnUse">
      <stop stop-color="#18264B"/>
      <stop offset="0.652" stop-color="#2D3C65"/>
    </linearGradient>
    <linearGradient id="paint17_linear_382_9924" x1="-3187.18" y1="997.854" x2="-3187.18" y2="951.643" gradientUnits="userSpaceOnUse">
      <stop stop-color="#4673BC"/>
      <stop offset="0.652" stop-color="#6A94E0"/>
    </linearGradient>
    <linearGradient id="paint18_linear_382_9924" x1="-8975.95" y1="4305.94" x2="-8975.95" y2="3317.81" gradientUnits="userSpaceOnUse">
      <stop stop-color="#18264B"/>
      <stop offset="0.652" stop-color="#2D3C65"/>
    </linearGradient>
    <linearGradient id="paint19_linear_382_9924" x1="2623.93" y1="3084.79" x2="2623.93" y2="2305.55" gradientUnits="userSpaceOnUse">
      <stop stop-color="#FAD96E"/>
      <stop offset="1" stop-color="#FFB32C"/>
    </linearGradient>
    <linearGradient id="paint20_linear_382_9924" x1="719.431" y1="582.931" x2="719.431" y2="635.536" gradientUnits="userSpaceOnUse">
      <stop stop-color="#F4AE98"/>
      <stop offset="1" stop-color="#FAD1BB"/>
    </linearGradient>
    <linearGradient id="paint21_linear_382_9924" x1="1070.53" y1="958.429" x2="980.573" y2="958.429" gradientUnits="userSpaceOnUse">
      <stop stop-color="#F4B9A4"/>
      <stop offset="0.652" stop-color="#FAD1BB"/>
    </linearGradient>
    <linearGradient id="paint22_linear_382_9924" x1="1117.54" y1="692.472" x2="1238.66" y2="692.472" gradientUnits="userSpaceOnUse">
      <stop stop-color="#4F5C7C"/>
      <stop offset="1" stop-color="#274168"/>
    </linearGradient>
    <linearGradient id="paint23_linear_382_9924" x1="395.513" y1="649.221" x2="395.513" y2="681.294" gradientUnits="userSpaceOnUse">
      <stop stop-color="#F4B9A4"/>
      <stop offset="0.652" stop-color="#FAD1BB"/>
    </linearGradient>
    <linearGradient id="paint24_linear_382_9924" x1="988.955" y1="3087.43" x2="988.955" y2="2324.51" gradientUnits="userSpaceOnUse">
      <stop stop-color="#FAD96E"/>
      <stop offset="1" stop-color="#FFA91F"/>
    </linearGradient>
    <linearGradient id="paint25_linear_382_9924" x1="-1585.59" y1="649.221" x2="-1585.59" y2="681.294" gradientUnits="userSpaceOnUse">
      <stop stop-color="#F4B9A4"/>
      <stop offset="0.652" stop-color="#FAD1BB"/>
    </linearGradient>
    <linearGradient id="paint26_linear_382_9924" x1="-3964.05" y1="3107.36" x2="-3964.05" y2="2334.08" gradientUnits="userSpaceOnUse">
      <stop stop-color="#FAD96E"/>
      <stop offset="1" stop-color="#FFA91F"/>
    </linearGradient>
  </defs>
</svg>